<?xml version="1.0" encoding="utf-8"?>
<!-- Generator: Adobe Illustrator 25.1.0, SVG Export Plug-In . SVG Version: 6.00 Build 0)  -->
<svg version="1.1" id="Laag_1" xmlns="http://www.w3.org/2000/svg" xmlns:xlink="http://www.w3.org/1999/xlink" x="0px" y="0px"
	 viewBox="0 0 1275 850" style="enable-background:new 0 0 1275 850;" xml:space="preserve">
<style type="text/css">
	.st0{fill:#F7F5F0;}
	.st1{fill:#6BA5B4;}
	.st2{fill:#0F1941;}
	.st3{fill:none;stroke:#FFB511;stroke-width:36.9566;stroke-linecap:round;stroke-linejoin:round;stroke-miterlimit:10;}
</style>
<g>
	<path class="st0" d="M813,166.3H591.3L462,295.7v351.1c0,10.2,8.3,18.5,18.5,18.5H813c10.2,0,18.5-8.3,18.5-18.5v-462
		C831.5,174.6,823.2,166.3,813,166.3z"/>
	<path class="st1" d="M785.3,351.1H508.2c-5.1,0-9.2-4.1-9.2-9.2v0c0-5.1,4.1-9.2,9.2-9.2h277.2c5.1,0,9.2,4.1,9.2,9.2v0
		C794.6,347,790.4,351.1,785.3,351.1z"/>
	<path class="st1" d="M711.4,406.5H508.2c-5.1,0-9.2-4.1-9.2-9.2l0,0c0-5.1,4.1-9.2,9.2-9.2h203.3c5.1,0,9.2,4.1,9.2,9.2l0,0
		C720.7,402.4,716.5,406.5,711.4,406.5z"/>
	<path class="st2" d="M554.3,295.7H462l129.3-129.3v92.4C591.3,279.1,574.8,295.7,554.3,295.7z"/>
	<polyline class="st3" points="517.4,582.1 545.1,609.8 609.8,545.1 	"/>
</g>
</svg>
