<?xml version="1.0" encoding="utf-8"?>
<!-- Generator: Adobe Illustrator 21.0.0, SVG Export Plug-In . SVG Version: 6.00 Build 0)  -->
<!DOCTYPE svg PUBLIC "-//W3C//DTD SVG 1.1//EN" "http://www.w3.org/Graphics/SVG/1.1/DTD/svg11.dtd">
<svg version="1.1" id="Laag_1" xmlns="http://www.w3.org/2000/svg" xmlns:xlink="http://www.w3.org/1999/xlink" x="0px" y="0px"
	 width="1275px" height="850px" viewBox="0 0 1275 850" style="enable-background:new 0 0 1275 850;" xml:space="preserve">
<style type="text/css">
	.st0{fill:none;}
	.st1{fill:#E74536;}
	.st2{fill:#F7F5F0;}
</style>
<rect class="st0" width="1275" height="850"/>
<g>
	<path class="st1" d="M629.4,371.1L629.4,371.1c0.3,0.1,0.5,0.3,0.7,0.6c13.4,13.4,35.1,13.4,48.5,0.1c13.4-13.4,13.4-35.1,0.1-48.5
		c-0.2-0.2-0.4-0.4-0.6-0.6l0,0l-61.2-61.9c0,0,0,0,0,0c-0.1-0.2-0.3-0.3-0.4-0.4l0,0l0,0c-5.9-6.2-10-10.7-14.3-14.9
		c-37.4-36.5-81.9-51.3-133.7-43c-69.4,11.1-123.7,74.7-124,145.1c-0.2,44,16.1,81.1,47.1,112.2c23.1,23.2,46.2,46.4,69.2,69.6
		c1.7-4.4,4.3-8.6,7.9-12.2c0.6-0.6,1.1-1.1,1.7-1.6l152-151.6L629.4,371.1z"/>
	<path class="st1" d="M662.3,587.7c-13.4-13.4-13.3-35.1,0.1-48.5c0.2-0.2,0.4-0.4,0.6-0.6l-0.1-0.1l70.6-70.3l-5.4-5.4L603.2,587.3
		c-13.4,13.4-35.2,13.4-48.6-0.1c-13.4-13.4-13.4-35.2,0.1-48.6l0,0l124.8-124.5l-5.3-5.4L517.6,565l-0.1-0.1
		c-0.2,0.2-0.4,0.5-0.6,0.7c-3.6,3.6-7.9,6.2-12.4,7.9c16.6,16.7,33.3,33.5,49.9,50.2c35,35.1,85.4,34.9,120.6-0.1
		c7.3-7.3,19.7-19.7,34.5-34.6C695.9,601.1,675.2,600.7,662.3,587.7z"/>
</g>
<g>
	<path class="st2" d="M843.4,243.2c-58.1-58.3-152.5-58.4-210.8-0.3l-16.4,17.4l61.7,62.3l0,0c0.2,0.2,0.4,0.4,0.6,0.6
		c13.4,13.4,13.3,35.1-0.1,48.5c-13.4,13.4-35.1,13.3-48.5-0.1c-0.2-0.2-0.4-0.4-0.6-0.6l-0.1,0.1l-7.2-7.2l-152,151.6
		c-0.6,0.5-1.2,1-1.7,1.6c-13.4,13.4-13.4,35.1-0.1,48.4c13.4,13.4,35.1,13.4,48.4,0.1c0.2-0.2,0.4-0.5,0.6-0.7l0.1,0.1l156.6-156.2
		l5.3,5.4L554.7,538.7l0,0c-13.4,13.4-13.5,35.1-0.1,48.6c13.4,13.4,35.1,13.5,48.6,0.1l124.8-124.5l5.4,5.4l-70.6,70.3l0.1,0.1
		c-0.2,0.2-0.4,0.4-0.6,0.6c-13.4,13.4-13.4,35.1-0.1,48.5c13.4,13.4,35.1,13.4,48.5,0.1c0.2-0.2,0.4-0.4,0.6-0.6l0,0
		c0,0,83.1-83.8,137-138.6C901.7,394.3,899.8,299.7,843.4,243.2z"/>
	<path class="st2" d="M517,457.9c0.7-0.7,1.3-1.4,2-2.1l0.1,0.1l97.1-98l-48.3-48.5l-97.1,98.1l0.1,0.1c-0.7,0.6-1.5,1.3-2.1,2
		c-13.4,13.3-13.4,35-0.1,48.4C481.9,471.2,503.6,471.2,517,457.9z"/>
</g>
<g>
</g>
<g>
</g>
<g>
</g>
<g>
</g>
<g>
</g>
<g>
</g>
<g>
</g>
<g>
</g>
<g>
</g>
<g>
</g>
<g>
</g>
<g>
</g>
<g>
</g>
<g>
</g>
<g>
</g>
</svg>
