<?xml version="1.0" encoding="UTF-8"?><svg id="Design" xmlns="http://www.w3.org/2000/svg" xmlns:xlink="http://www.w3.org/1999/xlink" viewBox="0 0 256 256"><defs><style>.cls-1{stroke:#fff;stroke-linejoin:round;}.cls-1,.cls-2{fill:none;}.cls-3{clip-path:url(#clippath);}.cls-2,.cls-4,.cls-5,.cls-6{stroke-width:0px;}.cls-4{fill:#50007b;}.cls-5{fill:#9600ff;}.cls-6{fill:#ca80ff;}</style><clipPath id="clippath"><path class="cls-2" d="m128.56,216.43c-1.39,0-2.79-.42-3.99-1.25-.92-.64-22.85-15.91-45.12-37.92-30.7-30.33-46.27-57.66-46.27-81.22,0-31.14,25.33-56.47,56.47-56.47,14.68,0,28.47,5.58,38.9,15.52,10.43-9.95,24.23-15.52,38.9-15.52,31.14,0,56.47,25.33,56.47,56.47,0,23.56-15.57,50.88-46.27,81.22-22.27,22-44.2,37.28-45.12,37.92-1.2.83-2.59,1.25-3.99,1.25ZM89.65,53.57c-23.42,0-42.47,19.05-42.47,42.47,0,19.4,14.56,44.04,42.11,71.26,15.95,15.76,32.02,28.13,39.27,33.49,7.28-5.38,23.44-17.83,39.41-33.62,27.46-27.16,41.97-51.75,41.97-71.12,0-23.42-19.05-42.47-42.47-42.47-13.11,0-25.28,5.92-33.4,16.23-1.33,1.69-3.35,2.67-5.5,2.67s-4.17-.98-5.5-2.67c-8.12-10.32-20.29-16.23-33.4-16.23Z"/></clipPath></defs><line class="cls-1" x1="0" y1="129.07" x2="24.14" y2="129.07"/><path class="cls-5" d="m128.56,216.43c-1.39,0-2.79-.42-3.99-1.25-.92-.64-22.85-15.91-45.12-37.92-30.7-30.33-46.27-57.66-46.27-81.22,0-31.14,25.33-56.47,56.47-56.47,14.68,0,28.47,5.58,38.9,15.52,10.43-9.95,24.23-15.52,38.9-15.52,31.14,0,56.47,25.33,56.47,56.47,0,23.56-15.57,50.88-46.27,81.22-22.27,22-44.2,37.28-45.12,37.92-1.2.83-2.59,1.25-3.99,1.25ZM89.65,53.57c-23.42,0-42.47,19.05-42.47,42.47,0,19.4,14.56,44.04,42.11,71.26,15.95,15.76,32.02,28.13,39.27,33.49,7.28-5.38,23.44-17.83,39.41-33.63,27.46-27.16,41.97-51.75,41.97-71.12,0-23.42-19.05-42.47-42.47-42.47-13.11,0-25.28,5.92-33.4,16.23-1.33,1.69-3.35,2.67-5.5,2.67h0c-2.15,0-4.17-.98-5.5-2.67-8.12-10.32-20.29-16.23-33.4-16.23Z"/><line class="cls-1" x1="174.28" y1="127.79" x2="256" y2="128"/><path class="cls-6" d="m133.86,164.29c-.23,0-.45-.01-.68-.03-2.88-.28-5.29-2.3-6.06-5.09l-10.65-38.22-4.86,10.96c-1.12,2.53-3.63,4.16-6.4,4.16H24.14c-3.87,0-7-3.13-7-7s3.13-7,7-7h76.52l10.92-24.63c1.2-2.7,3.96-4.36,6.91-4.14,2.95.21,5.44,2.26,6.23,5.1l11.02,39.58,6.71-13.33c1.19-2.36,3.61-3.85,6.25-3.85h25.56c3.87,0,7,3.13,7,7s-3.13,7-7,7h-21.25l-12.91,25.65c-1.2,2.38-3.63,3.85-6.25,3.85Z"/><g class="cls-3"><path class="cls-4" d="m133.86,164.29c-.23,0-.45-.01-.68-.03-2.88-.28-5.29-2.3-6.06-5.09l-10.65-38.22-4.86,10.96c-1.12,2.53-3.63,4.16-6.4,4.16H24.14c-3.87,0-7-3.13-7-7s3.13-7,7-7h76.52l10.92-24.63c1.2-2.7,3.96-4.37,6.91-4.14,2.95.21,5.44,2.26,6.23,5.1l11.02,39.58,6.71-13.33c1.19-2.36,3.61-3.85,6.25-3.85h25.56c3.87,0,7,3.13,7,7s-3.13,7-7,7h-21.25l-12.91,25.65c-1.2,2.38-3.63,3.85-6.25,3.85Z"/></g></svg>