<?xml version="1.0" encoding="UTF-8"?><svg id="Design" xmlns="http://www.w3.org/2000/svg" xmlns:xlink="http://www.w3.org/1999/xlink" viewBox="0 0 256 256"><defs><style>.cls-1{stroke:#fff;stroke-linecap:round;stroke-linejoin:round;}.cls-1,.cls-2{fill:none;}.cls-3{clip-path:url(#clippath);}.cls-2,.cls-4,.cls-5,.cls-6{stroke-width:0px;}.cls-4{fill:#50007b;}.cls-5{fill:#9600ff;}.cls-6{fill:#ca80ff;}</style><clipPath id="clippath"><path class="cls-2" d="m109.25,199.78c-23.42,0-45.45-9.12-62.01-25.69-34.19-34.19-34.19-89.83,0-124.03h0c34.2-34.19,89.83-34.19,124.03,0,34.19,34.2,34.19,89.83,0,124.03-16.56,16.56-38.59,25.69-62.01,25.69ZM57.14,59.97c-28.74,28.74-28.74,75.49,0,104.23,28.73,28.74,75.49,28.74,104.22,0,28.74-28.73,28.74-75.49,0-104.23-28.73-28.73-75.49-28.73-104.22,0h0Z"/></clipPath></defs><path class="cls-1" d="m109.25,216.33c57.57,0,104.24-46.67,104.24-104.24"/><path class="cls-6" d="m229.25,238.58c-1.78,0-3.57-.68-4.94-2.04l-22.06-21.93-50.88-50.5c-2.74-2.72-2.76-7.16-.04-9.9,2.72-2.74,7.16-2.76,9.9-.04l50.88,50.51,22.06,21.93c2.74,2.73,2.75,7.16.03,9.9-1.37,1.38-3.17,2.06-4.96,2.06Z"/><path class="cls-5" d="m109.25,199.78c-23.43,0-45.45-9.12-62.01-25.69s-25.69-38.59-25.69-62.01,9.12-45.45,25.69-62.01h0s0,0,0,0c16.56-16.56,38.59-25.69,62.01-25.69s45.45,9.12,62.01,25.69c16.56,16.56,25.69,38.59,25.69,62.01s-9.12,45.45-25.69,62.01-38.59,25.69-62.01,25.69Zm0-161.4c-19.69,0-38.19,7.67-52.11,21.59h0c-13.92,13.92-21.59,32.43-21.59,52.11s7.67,38.19,21.59,52.11c28.74,28.74,75.49,28.74,104.23,0,13.92-13.92,21.59-32.43,21.59-52.11s-7.67-38.19-21.59-52.11-32.43-21.59-52.11-21.59Zm-57.06,16.64h0,0Z"/><g class="cls-3"><path class="cls-4" d="m219.25,228.58c-1.79,0-3.57-.68-4.94-2.04l-22.06-21.93-40.87-40.49c-2.75-2.72-2.77-7.15-.05-9.9,2.72-2.75,7.15-2.77,9.9-.05l40.88,40.5,22.07,21.94c2.74,2.73,2.75,7.16.03,9.9-1.37,1.38-3.17,2.06-4.96,2.06Z"/></g></svg>