<?xml version="1.0" encoding="UTF-8"?><svg id="Design" xmlns="http://www.w3.org/2000/svg" viewBox="0 0 256 256"><defs><style>.cls-1{fill:none;stroke:#00d7ff;stroke-linecap:round;stroke-linejoin:round;}.cls-2{fill:#4e90e1;}.cls-2,.cls-3,.cls-4{stroke-width:0px;}.cls-3{fill:#fff;}.cls-4{fill:#00d7ff;}</style></defs><path class="cls-2" d="m201.85,230.26c8.57,0,15.55-6.98,15.55-15.55v-21.5c0-15.63-6.44-30.92-17.68-41.94-7.1-6.97-15.59-11.85-24.78-14.37,14.26-5.8,24.33-19.81,24.33-36.13,0-18.6-13.1-34.2-30.55-38.06,2.57,3.87,4.52,8.17,5.73,12.78,8.84,4.97,14.82,14.44,14.82,25.28,0,15.99-13,28.99-28.99,28.99-1.62,0-3.21-.14-4.76-.4,7.7,3.06,14.82,7.69,21,13.74,2.61,2.56,4.97,5.34,7.1,8.28,3.25,1.93,6.3,4.28,9.1,7.03,9.33,9.15,14.68,21.84,14.68,34.8v21.5c0,3.06-2.49,5.55-5.55,5.55h-7.23c-2.61,5.87-8.49,9.97-15.32,9.97l22.55.03Z"/><path class="cls-3" d="m176.52,143.1c-8.29-8.14-18.31-13.71-29.13-16.34,16.58-5.95,28.47-21.82,28.47-40.42,0-20.51-14.46-37.69-33.71-41.92,2.01,3.73,3.53,7.76,4.5,11.99,11.33,5.21,19.22,16.66,19.22,29.93,0,18.15-14.77,32.92-32.92,32.92-.81,0-1.62-.04-2.42-.1,6.63,3.31,12.81,7.7,18.31,13.09,2.65,2.6,5.08,5.39,7.29,8.34,4.84,2.45,9.37,5.68,13.4,9.64,10.52,10.32,16.55,24.62,16.55,39.24v23.99c0,3.73-3.04,6.77-6.77,6.77h-10.47c-2.98,5.8-8.95,9.81-15.86,10h26.33c9.25,0,16.77-7.52,16.77-16.77v-23.99c0-17.28-7.12-34.19-19.55-46.38Z"/><line class="cls-1" x1="256" y1="229.89" x2="0" y2="229.89"/><path class="cls-4" d="m152.47,230.26H46.92c-10.14,0-18.4-8.25-18.4-18.4v-28.79c0-18.77,7.24-36.48,20.4-49.87,10.13-10.32,22.9-17.17,36.79-19.93-19.76-6.01-34.18-24.4-34.18-46.1,0-26.56,21.61-48.17,48.16-48.17s48.17,21.61,48.17,48.17c0,21.74-14.48,40.17-34.31,46.14,13.13,2.69,25.3,9.18,35.27,18.96,14.01,13.75,22.04,32.81,22.04,52.3v27.3c0,10.14-8.25,18.4-18.4,18.4Zm-52.82-108.36c-.38,0-.76,0-1.13.01-16.09.31-31.17,6.8-42.46,18.3-11.31,11.51-17.53,26.73-17.53,42.86v28.79c0,4.63,3.77,8.4,8.4,8.4h105.55c4.63,0,8.4-3.77,8.4-8.4v-27.3c0-16.82-6.94-33.28-19.05-45.16-11.53-11.31-26.47-17.5-42.17-17.5Zm.05-92.9c-21.04,0-38.16,17.12-38.16,38.17s17.12,38.17,38.16,38.17,38.17-17.12,38.17-38.17-17.12-38.17-38.17-38.17Z"/></svg>