<?xml version="1.0" encoding="UTF-8"?><svg id="Design" xmlns="http://www.w3.org/2000/svg" viewBox="0 0 256 256"><defs><style>.cls-1{fill:none;stroke:#fff;stroke-linecap:round;stroke-linejoin:round;}.cls-2{fill:#50007b;}.cls-2,.cls-3,.cls-4,.cls-5{stroke-width:0px;}.cls-3{fill:#9600ff;}.cls-4{fill:#ca80ff;}.cls-5{fill:#c980ff;}</style></defs><path class="cls-1" d="m185.62,169.69c18.85-16.35,30.77-40.48,30.77-67.39,0-49.25-39.93-89.18-89.18-89.18S38.04,53.05,38.04,102.3c0,27.06,12.06,51.31,31.09,67.66"/><path class="cls-3" d="m189.4,239.88h-124.36c-8.26,0-14.98-6.72-14.98-14.98v-15.17c0-21.41,8.88-42.16,24.36-56.94,14.4-13.75,33.17-21.32,52.83-21.32,1.2,0,2.42.03,3.63.08,41.22,1.93,73.51,35.78,73.51,77.08v16.26c0,8.26-6.72,14.98-14.98,14.98Zm-62.15-94.4c-16.05,0-31.38,6.2-43.16,17.44-12.73,12.15-20.03,29.21-20.03,46.81v15.17c0,.53.45.98.98.98h124.36c.53,0,.98-.45.98-.98v-16.26c0-33.8-26.42-61.52-60.16-63.09-.99-.05-2-.07-2.98-.07Z"/><path class="cls-4" d="m127.22,145.48c-29,0-52.58-23.59-52.58-52.58s23.59-52.58,52.58-52.58,52.58,23.59,52.58,52.58-23.59,52.58-52.58,52.58Zm0-91.17c-21.28,0-38.58,17.31-38.58,38.58s17.31,38.58,38.58,38.58,38.58-17.31,38.58-38.58-17.31-38.58-38.58-38.58Z"/><path class="cls-3" d="m127.02,145.48c.06,0,.12,0,.18,0,.07,0,.14,0,.21,0-.06,0-.12,0-.19,0-.07,0-.14,0-.21,0Z"/><path class="cls-5" d="m127.02,131.48c.06,0,.12,0,.18,0,.07,0,.14,0,.21,0-.06,0-.12,0-.19,0-.07,0-.14,0-.21,0Z"/><path class="cls-2" d="m146.92,134.02c-5.15-1.35-10.51-2.2-16.04-2.46-1.15-.05-2.3-.08-3.44-.08-.07,0-.14,0-.21,0-.06,0-.12,0-.18,0-6.62.02-13.12.91-19.4,2.59-3.03.81-6.02,1.8-8.93,2.98,2.65,1.72,5.45,3.21,8.4,4.43,6.15,2.56,12.88,3.98,19.94,4,.07,0,.14,0,.21,0,.06,0,.12,0,.19,0,7.1-.03,13.86-1.47,20.04-4.06,2.95-1.24,5.76-2.74,8.41-4.47-2.9-1.16-5.89-2.13-8.96-2.94Zm-19.7,4.47c-.06,0-.13,0-.19,0,.07,0,.15,0,.22,0,.06,0,.13,0,.19,0-.07,0-.15,0-.22,0Z"/></svg>