<?xml version="1.0" encoding="utf-8"?>
<!-- Generator: Adobe Illustrator 24.0.0, SVG Export Plug-In . SVG Version: 6.00 Build 0)  -->
<svg version="1.1" xmlns="http://www.w3.org/2000/svg" xmlns:xlink="http://www.w3.org/1999/xlink" x="0px" y="0px" width="1275px"
	 height="850px" viewBox="0 0 1275 850" style="enable-background:new 0 0 1275 850;" xml:space="preserve">
<style type="text/css">
	.st0{fill:#2175D9;}
	.st1{fill:#FFB511;}
	.st2{fill:#E74536;}
	.st3{fill:#0F1941;}
	.st4{fill:#6BA5B4;}
</style>
<g id="Laag_1">
</g>
<g id="Laag_2">
	<path class="st0" d="M351.1,572.8c0-163.3,132.4-295.7,295.7-295.7s295.7,132.4,295.7,295.7h37c0-183.7-148.9-332.6-332.6-332.6
		S314.1,389.1,314.1,572.8H351.1z"/>
	<path class="st1" d="M388,572.8c0-142.9,115.8-258.7,258.7-258.7S905.4,430,905.4,572.8h37c0-163.3-132.4-295.7-295.7-295.7
		S351.1,409.5,351.1,572.8H388z"/>
	<path class="st2" d="M425,572.8c0-122.5,99.3-221.7,221.7-221.7s221.7,99.3,221.7,221.7h37c0-142.9-115.8-258.7-258.7-258.7
		S388,430,388,572.8H425z"/>
	<path class="st3" d="M462,572.8C462,470.8,544.7,388,646.7,388s184.8,82.7,184.8,184.8h37c0-122.5-99.3-221.7-221.7-221.7
		S425,450.4,425,572.8H462z"/>
	<path class="st4" d="M498.9,572.8c0-81.6,66.2-147.8,147.8-147.8s147.8,66.2,147.8,147.8h37c0-102.1-82.7-184.8-184.8-184.8
		S462,470.8,462,572.8H498.9z"/>
</g>
<g id="Layer_1">
</g>
<g id="Layer_4">
</g>
<g id="Layer_5">
</g>
</svg>
