<?xml version="1.0" encoding="UTF-8"?><svg id="Design" xmlns="http://www.w3.org/2000/svg" viewBox="0 0 256 256"><defs><style>.cls-1{fill:none;stroke:#00d7ff;stroke-linecap:round;stroke-linejoin:round;}.cls-2{fill:#4e90e1;}.cls-2,.cls-3,.cls-4{stroke-width:0px;}.cls-3{fill:#fff;}.cls-4{fill:#00d7ff;}</style></defs><line class="cls-1" x1="256" y1="158.28" y2="158.28"/><path class="cls-4" d="m217.01,71.77h-26.89c-2.76,0-5,2.24-5,5s2.24,5,5,5h15.65c-39.52,43.49-71.96,71.5-129.44,71.5h-34.31c-2.76,0-5,2.24-5,5s2.24,5,5,5h34.31c30.68,0,56.33-7.46,80.72-23.47,19.84-13.02,37.5-30.84,54.96-50.02v13.87c0,2.76,2.24,5,5,5s5-2.24,5-5v-26.89c0-2.76-2.24-5-5-5Z"/><path class="cls-2" d="m217.01,153.28h-53.24c-20.46,6.37-44.13,10-76.54,10h129.78c2.76,0,5-2.24,5-5s-2.24-5-5-5Z"/><path class="cls-3" d="m214.57,118.95c-23.87,13.39-44.37,23.79-72.45,29.49-20,10.07-41.29,14.84-65.78,14.84h10.9c63.95,0,93.87-14.1,132.22-35.6,2.41-1.35,3.27-4.4,1.92-6.81-1.35-2.41-4.4-3.27-6.81-1.92Z"/></svg>