<?xml version="1.0" encoding="utf-8"?>
<!-- Generator: Adobe Illustrator 28.0.0, SVG Export Plug-In . SVG Version: 6.00 Build 0)  -->
<svg version="1.1" id="Design" xmlns="http://www.w3.org/2000/svg" xmlns:xlink="http://www.w3.org/1999/xlink" x="0px" y="0px"
	 viewBox="0 0 256 256" style="enable-background:new 0 0 256 256;" xml:space="preserve">
<style type="text/css">
	.st0{fill:#00D7FF;}
	.st1{fill:#FFFFFF;}
	.st2{fill:#4E90E1;}
	.st3{fill:#FFB511;stroke:#00D7FF;stroke-width:10;stroke-miterlimit:10;}
	.st4{fill:none;stroke:#00D7FF;stroke-width:10;stroke-miterlimit:10;}
</style>
<g>
	<path class="st0" d="M128,81c-17.9,0-32.5-14.6-32.5-32.5S110.1,16,128,16s32.5,14.6,32.5,32.5S145.9,81,128,81z M128,17
		c-17.4,0-31.5,14.1-31.5,31.5S110.6,80,128,80s31.5-14.1,31.5-31.5S145.4,17,128,17z"/>
</g>
<g>
	<path class="st1" d="M128,106.2c-2.8,0-5-2.2-5-5V62.6c0-2.8,2.2-5,5-5s5,2.2,5,5v38.7C133,104,130.8,106.2,128,106.2z"/>
</g>
<g>
	<path class="st1" d="M128,65.6c-9.5,0-17.2-7.7-17.2-17.2s7.7-17.2,17.2-17.2s17.2,7.7,17.2,17.2S137.5,65.6,128,65.6z M128,41.3
		c-4,0-7.2,3.2-7.2,7.2c0,4,3.2,7.2,7.2,7.2c4,0,7.2-3.2,7.2-7.2C135.2,44.5,132,41.3,128,41.3z"/>
</g>
<g>
	<path class="st2" d="M57.7,198.2H41.5c-11.7,0-21.2-9.5-21.2-21.2v-21.6c0-11.7,9.5-21.2,21.2-21.2h16.2c2.8,0,5,2.2,5,5v54.1
		C62.7,195.9,60.5,198.2,57.7,198.2z M41.5,144.1c-6.2,0-11.2,5-11.2,11.2v21.6c0,6.2,5,11.2,11.2,11.2h11.2v-44.1H41.5z"/>
</g>
<g>
	<path class="st2" d="M214.5,198.2h-16.2c-2.8,0-5-2.2-5-5v-54.1c0-2.8,2.2-5,5-5h16.2c11.7,0,21.2,9.5,21.2,21.2v21.6
		C235.7,188.6,226.2,198.2,214.5,198.2z M203.3,188.2h11.2c6.2,0,11.2-5,11.2-11.2v-21.6c0-6.2-5-11.2-11.2-11.2h-11.2V188.2z"/>
</g>
<g>
	<path class="st3" d="M215.2,125.9"/>
</g>
<g>
	<path class="st3" d="M215.2,125.9"/>
</g>
<g>
	<path class="st3" d="M215.2,131.2"/>
</g>
<g>
	<path class="st4" d="M162.7,203.1"/>
</g>
<g>
	<path class="st0" d="M182.1,236H73.9c-11.7,0-21.2-9.5-21.2-21.2v-97.3c0-11.7,9.5-21.2,21.2-21.2h108.2c11.7,0,21.2,9.5,21.2,21.2
		v97.3C203.3,226.5,193.8,236,182.1,236z M73.9,106.2c-6.2,0-11.2,5-11.2,11.2v97.3c0,6.2,5,11.2,11.2,11.2h108.2
		c6.2,0,11.2-5,11.2-11.2v-97.3c0-6.2-5-11.2-11.2-11.2H73.9z"/>
</g>
<g>
	<path class="st0" d="M98.3,169.8c-11,0-19.9-8.9-19.9-19.9S87.3,130,98.3,130s19.9,8.9,19.9,19.9S109.3,169.8,98.3,169.8z
		 M98.3,140c-5.4,0-9.9,4.4-9.9,9.9s4.4,9.9,9.9,9.9s9.9-4.4,9.9-9.9S103.7,140,98.3,140z"/>
</g>
<g>
	<path class="st0" d="M157.9,169.8c-11,0-19.9-8.9-19.9-19.9S147,130,157.9,130s19.9,8.9,19.9,19.9S168.9,169.8,157.9,169.8z
		 M157.9,140c-5.4,0-9.9,4.4-9.9,9.9s4.4,9.9,9.9,9.9s9.9-4.4,9.9-9.9S163.4,140,157.9,140z"/>
</g>
<g>
	<path class="st0" d="M171.3,203.6H84.7c-2.8,0-5-2.2-5-5s2.2-5,5-5h86.5c2.8,0,5,2.2,5,5S174,203.6,171.3,203.6z"/>
</g>
</svg>
