<?xml version="1.0" encoding="UTF-8"?>
<svg xmlns="http://www.w3.org/2000/svg" xmlns:xlink="http://www.w3.org/1999/xlink" viewBox="0 0 1275 850">
  <defs>
    <style>
      .cls-1 {
        clip-path: url(#clippath);
      }

      .cls-2, .cls-3 {
        fill: none;
      }

      .cls-2, .cls-4, .cls-5, .cls-6, .cls-7 {
        stroke-width: 0px;
      }

      .cls-3 {
        stroke: #fff;
        stroke-linecap: round;
        stroke-miterlimit: 10;
      }

      .cls-4 {
        fill: #46e673;
      }

      .cls-5 {
        fill: #286464;
      }

      .cls-6 {
        fill: #2175d9;
      }

      .cls-7 {
        fill: #fff;
      }
    </style>
    <clipPath id="clippath">
      <rect class="cls-2" width="1275" height="850"/>
    </clipPath>
  </defs>
  <g id="Dimensions">
    <rect class="cls-2" width="1275" height="850"/>
  </g>
  <g id="DESIGN">
    <g class="cls-1">
      <g>
        <path class="cls-5" d="m413.39,494.48c-34.28,0-62.06-27.79-62.06-62.06s27.79-62.06,62.06-62.06c65.57,0,129.14-12.83,188.96-38.13,57.8-24.45,109.73-59.46,154.34-104.07,44.61-44.61,79.62-96.53,104.07-154.34,25.3-59.81,38.13-123.39,38.13-188.96,0-34.28,27.79-62.06,62.06-62.06s62.06,27.79,62.06,62.06c0,82.27-16.13,162.11-47.93,237.31-30.71,72.6-74.65,137.79-130.62,193.75-55.97,55.97-121.15,99.91-193.75,130.62-75.2,31.81-155.04,47.93-237.31,47.93Z"/>
        <path class="cls-4" d="m900.89,981.98c-34.28,0-62.06-27.79-62.06-62.06,0-57.46-11.24-113.17-33.41-165.58-21.42-50.65-52.11-96.16-91.2-135.25-39.09-39.09-84.6-69.78-135.25-91.2-52.41-22.17-108.12-33.41-165.58-33.41-34.28,0-62.06-27.79-62.06-62.06s27.79-62.06,62.06-62.06c74.16,0,146.14,14.54,213.93,43.21,65.45,27.68,124.21,67.3,174.66,117.75,50.45,50.45,90.07,109.22,117.75,174.67,28.67,67.79,43.21,139.77,43.21,213.93,0,34.28-27.79,62.06-62.06,62.06Z"/>
        <path class="cls-3" d="m413.39,432.42c269.24,0,487.5,218.26,487.5,487.5"/>
        <path class="cls-6" d="m413.39,494.48c34.27,0,62.06-27.77,62.06-62.04s-27.79-62.07-62.06-62.07-62.06,27.79-62.06,62.07,27.79,62.04,62.06,62.04"/>
        <path class="cls-7" d="m818.24,316.82c34.27,0,62.06-27.77,62.06-62.04s-27.79-62.07-62.06-62.07-62.06,27.79-62.06,62.07,27.79,62.04,62.06,62.04"/>
        <path class="cls-4" d="m844.15,285.01c34.27,0,62.06-27.77,62.06-62.04s-27.79-62.07-62.06-62.07-62.06,27.79-62.06,62.07,27.79,62.04,62.06,62.04"/>
      </g>
    </g>
  </g>
</svg>