<?xml version="1.0" encoding="utf-8"?>
<!-- Generator: Adobe Illustrator 21.0.0, SVG Export Plug-In . SVG Version: 6.00 Build 0)  -->
<!DOCTYPE svg PUBLIC "-//W3C//DTD SVG 1.1//EN" "http://www.w3.org/Graphics/SVG/1.1/DTD/svg11.dtd">
<svg version="1.1" id="Laag_1" xmlns="http://www.w3.org/2000/svg" xmlns:xlink="http://www.w3.org/1999/xlink" x="0px" y="0px"
	 width="1275px" height="850px" viewBox="0 0 1275 850" style="enable-background:new 0 0 1275 850;" xml:space="preserve">
<style type="text/css">
	.st0{fill:none;}
	.st1{fill:#0F1941;}
	.st2{fill:#F7F5F0;}
	.st3{fill:#FFB511;}
	.st4{fill:#E74536;}
</style>
<rect x="0" class="st0" width="1275" height="850"/>
<g>
	<g>
		<path class="st1" d="M562,287.3c0-41.6,33.9-75.4,75.5-75.4c41.6,0,75.4,33.8,75.5,75.4h34.1c0-60.5-49.1-109.5-109.6-109.5
			c-60.5,0-109.6,49-109.6,109.5H562z"/>
		<g>
			<path class="st2" d="M677.3,492V514c0,11.6-9.4,21.1-21.1,21.1h-37.4c-11.6,0-21.1-9.4-21.1-21.1V492
				c-87.4-6.3-169-33-240.3-75.4v199.5c0,31,25.2,56.2,56.2,56.2h447.9c31,0,56.2-25.2,56.2-56.2V416.5
				C846.3,458.9,764.6,485.7,677.3,492z"/>
		</g>
	</g>
	<g>
		<path class="st3" d="M357.4,343.5v73.1c82,48.8,177.8,76.9,280.1,76.9s198.1-28.1,280.1-76.9v-73.1c0-31-25.2-56.2-56.2-56.2
			H413.6C382.5,287.3,357.4,312.4,357.4,343.5z"/>
	</g>
	<g>
		<path class="st4" d="M656.2,535.1h-37.4c-11.6,0-21.1-9.4-21.1-21.1v-34.9c0-11.6,9.4-21.1,21.1-21.1h37.4
			c11.6,0,21.1,9.4,21.1,21.1V514C677.3,525.7,667.8,535.1,656.2,535.1z"/>
	</g>
</g>
<g>
</g>
<g>
</g>
<g>
</g>
<g>
</g>
<g>
</g>
<g>
</g>
<g>
</g>
<g>
</g>
<g>
</g>
<g>
</g>
<g>
</g>
<g>
</g>
<g>
</g>
<g>
</g>
<g>
</g>
</svg>
