<?xml version="1.0" encoding="utf-8"?>
<!-- Generator: Adobe Illustrator 21.0.0, SVG Export Plug-In . SVG Version: 6.00 Build 0)  -->
<!DOCTYPE svg PUBLIC "-//W3C//DTD SVG 1.1//EN" "http://www.w3.org/Graphics/SVG/1.1/DTD/svg11.dtd">
<svg version="1.1" id="Laag_1" xmlns="http://www.w3.org/2000/svg" xmlns:xlink="http://www.w3.org/1999/xlink" x="0px" y="0px"
	 width="1275px" height="850px" viewBox="0 0 1275 850" style="enable-background:new 0 0 1275 850;" xml:space="preserve">
<style type="text/css">
	.st0{fill:none;}
	.st1{fill:#0F1941;}
	.st2{fill:#F7F5F0;}
	.st3{fill:#FFB511;}
	.st4{fill:#2175D9;}
	.st5{fill:#E74536;}
</style>
<rect class="st0" width="1275" height="850"/>
<g>
	<rect x="2167" y="74.5" class="st1" width="1275" height="850"/>
	<circle class="st2" cx="3030.5" cy="730.5" r="79.8"/>
	<circle class="st2" cx="2578.4" cy="730.5" r="79.8"/>
	<circle class="st3" cx="3256.5" cy="504.5" r="79.8"/>
	<circle class="st3" cx="2804.5" cy="504.5" r="79.8"/>
	<circle class="st3" cx="2352.4" cy="504.5" r="79.8"/>
	<circle class="st2" cx="3030.5" cy="278.5" r="79.8"/>
	<circle class="st2" cx="2578.4" cy="278.5" r="79.8"/>
	<g>
		<path class="st4" d="M3275.3,645.2c-4.8-4.8-11.5-7.8-18.8-7.8c-14.7,0-26.6,11.9-26.6,26.6c0,7.3,3,14,7.8,18.8l21.1,21.1H3190
			c-14.7,0-26.6,11.9-26.6,26.6s11.9,26.6,26.6,26.6h68.8l-21.1,21.1c-4.8,4.8-7.8,11.5-7.8,18.8c0,14.7,11.9,26.6,26.6,26.6
			c7.3,0,14-3,18.8-7.8l66.5-66.5c4.8-4.8,7.8-11.5,7.8-18.8s-3-14-7.8-18.8L3275.3,645.2z"/>
		<path class="st4" d="M2823.3,645.2c-4.8-4.8-11.5-7.8-18.8-7.8c-14.7,0-26.6,11.9-26.6,26.6c0,7.3,3,14,7.8,18.8l21.1,21.1H2738
			c-14.7,0-26.6,11.9-26.6,26.6s11.9,26.6,26.6,26.6h68.8l-21.1,21.1c-4.8,4.8-7.8,11.5-7.8,18.8c0,14.7,11.9,26.6,26.6,26.6
			c7.3,0,14-3,18.8-7.8l66.5-66.5c4.8-4.8,7.8-11.5,7.8-18.8s-3-14-7.8-18.8L2823.3,645.2z"/>
		<path class="st4" d="M2597.2,419.2c-4.8-4.8-11.5-7.8-18.8-7.8c-14.7,0-26.6,11.9-26.6,26.6c0,7.3,3,14,7.8,18.8l21.1,21.1H2512
			c-14.7,0-26.6,11.9-26.6,26.6c0,14.7,11.9,26.6,26.6,26.6h68.8l-21.1,21.1c-4.8,4.8-7.8,11.5-7.8,18.8c0,14.7,11.9,26.6,26.6,26.6
			c7.3,0,14-3,18.8-7.8l66.5-66.5c4.8-4.8,7.8-11.5,7.8-18.8s-3-14-7.8-18.8L2597.2,419.2z"/>
		<path class="st4" d="M3049.3,419.2c-4.8-4.8-11.5-7.8-18.8-7.8c-14.7,0-26.6,11.9-26.6,26.6c0,7.3,3,14,7.8,18.8l21.1,21.1H2964
			c-14.7,0-26.6,11.9-26.6,26.6c0,14.7,11.9,26.6,26.6,26.6h68.8l-21.1,21.1c-4.8,4.8-7.8,11.5-7.8,18.8c0,14.7,11.9,26.6,26.6,26.6
			c7.3,0,14-3,18.8-7.8l66.5-66.5c4.8-4.8,7.8-11.5,7.8-18.8s-3-14-7.8-18.8L3049.3,419.2z"/>
		<path class="st4" d="M2371.2,645.2c-4.8-4.8-11.5-7.8-18.8-7.8c-14.7,0-26.6,11.9-26.6,26.6c0,7.3,3,14,7.8,18.8l21.1,21.1h-68.8
			c-14.7,0-26.6,11.9-26.6,26.6s11.9,26.6,26.6,26.6h68.8l-21.1,21.1c-4.8,4.8-7.8,11.5-7.8,18.8c0,14.7,11.9,26.6,26.6,26.6
			c7.3,0,14-3,18.8-7.8l66.5-66.5c4.8-4.8,7.8-11.5,7.8-18.8s-3-14-7.8-18.8L2371.2,645.2z"/>
		<path class="st4" d="M3190,305h68.8l-21.1,21.1c-4.8,4.8-7.8,11.5-7.8,18.8c0,14.7,11.9,26.6,26.6,26.6c7.3,0,14-3,18.8-7.8
			l66.5-66.5c4.8-4.8,7.8-11.5,7.8-18.8c0-7.3-3-14-7.8-18.8l-66.5-66.5c-4.8-4.8-11.5-7.8-18.8-7.8c-14.7,0-26.6,11.9-26.6,26.6
			c0,7.3,3,14,7.8,18.8l21.1,21.1H3190c-14.7,0-26.6,11.9-26.6,26.6C3163.4,293.1,3175.3,305,3190,305z"/>
		<path class="st4" d="M2823.3,193.2c-4.8-4.8-11.5-7.8-18.8-7.8c-14.7,0-26.6,11.9-26.6,26.6c0,7.3,3,14,7.8,18.8l21.1,21.1H2738
			c-14.7,0-26.6,11.9-26.6,26.6c0,14.7,11.9,26.6,26.6,26.6h68.8l-21.1,21.1c-4.8,4.8-7.8,11.5-7.8,18.8c0,14.7,11.9,26.6,26.6,26.6
			c7.3,0,14-3,18.8-7.8l66.5-66.5c4.8-4.8,7.8-11.5,7.8-18.8c0-7.3-3-14-7.8-18.8L2823.3,193.2z"/>
		<path class="st4" d="M2371.2,193.2c-4.8-4.8-11.5-7.8-18.8-7.8c-14.7,0-26.6,11.9-26.6,26.6c0,7.3,3,14,7.8,18.8l21.1,21.1h-68.8
			c-14.7,0-26.6,11.9-26.6,26.6c0,14.7,11.9,26.6,26.6,26.6h68.8l-21.1,21.1c-4.8,4.8-7.8,11.5-7.8,18.8c0,14.7,11.9,26.6,26.6,26.6
			c7.3,0,14-3,18.8-7.8l66.5-66.5c4.8-4.8,7.8-11.5,7.8-18.8c0-7.3-3-14-7.8-18.8L2371.2,193.2z"/>
	</g>
	<rect x="2162" y="-18.5" class="st1" width="1275" height="850"/>
	<circle class="st2" cx="3025.5" cy="637.5" r="79.8"/>
	<circle class="st2" cx="2573.4" cy="637.5" r="79.8"/>
	<circle class="st3" cx="3251.5" cy="411.5" r="79.8"/>
	<circle class="st3" cx="2799.5" cy="411.5" r="79.8"/>
	<circle class="st3" cx="2347.4" cy="411.5" r="79.8"/>
	<circle class="st2" cx="3025.5" cy="185.5" r="79.8"/>
	<circle class="st2" cx="2573.4" cy="185.5" r="79.8"/>
	<g>
		<path class="st4" d="M3270.3,552.2c-4.8-4.8-11.5-7.8-18.8-7.8c-14.7,0-26.6,11.9-26.6,26.6c0,7.3,3,14,7.8,18.8l21.1,21.1H3185
			c-14.7,0-26.6,11.9-26.6,26.6s11.9,26.6,26.6,26.6h68.8l-21.1,21.1c-4.8,4.8-7.8,11.5-7.8,18.8c0,14.7,11.9,26.6,26.6,26.6
			c7.3,0,14-3,18.8-7.8l66.5-66.5c4.8-4.8,7.8-11.5,7.8-18.8s-3-14-7.8-18.8L3270.3,552.2z"/>
		<path class="st4" d="M2818.3,552.2c-4.8-4.8-11.5-7.8-18.8-7.8c-14.7,0-26.6,11.9-26.6,26.6c0,7.3,3,14,7.8,18.8l21.1,21.1H2733
			c-14.7,0-26.6,11.9-26.6,26.6s11.9,26.6,26.6,26.6h68.8l-21.1,21.1c-4.8,4.8-7.8,11.5-7.8,18.8c0,14.7,11.9,26.6,26.6,26.6
			c7.3,0,14-3,18.8-7.8l66.5-66.5c4.8-4.8,7.8-11.5,7.8-18.8s-3-14-7.8-18.8L2818.3,552.2z"/>
		<path class="st4" d="M2592.2,326.2c-4.8-4.8-11.5-7.8-18.8-7.8c-14.7,0-26.6,11.9-26.6,26.6c0,7.3,3,14,7.8,18.8l21.1,21.1H2507
			c-14.7,0-26.6,11.9-26.6,26.6s11.9,26.6,26.6,26.6h68.8l-21.1,21.1c-4.8,4.8-7.8,11.5-7.8,18.8c0,14.7,11.9,26.6,26.6,26.6
			c7.3,0,14-3,18.8-7.8l66.5-66.5c4.8-4.8,7.8-11.5,7.8-18.8s-3-14-7.8-18.8L2592.2,326.2z"/>
		<path class="st4" d="M3044.3,326.2c-4.8-4.8-11.5-7.8-18.8-7.8c-14.7,0-26.6,11.9-26.6,26.6c0,7.3,3,14,7.8,18.8l21.1,21.1H2959
			c-14.7,0-26.6,11.9-26.6,26.6s11.9,26.6,26.6,26.6h68.8l-21.1,21.1c-4.8,4.8-7.8,11.5-7.8,18.8c0,14.7,11.9,26.6,26.6,26.6
			c7.3,0,14-3,18.8-7.8l66.5-66.5c4.8-4.8,7.8-11.5,7.8-18.8s-3-14-7.8-18.8L3044.3,326.2z"/>
		<path class="st4" d="M2366.2,552.2c-4.8-4.8-11.5-7.8-18.8-7.8c-14.7,0-26.6,11.9-26.6,26.6c0,7.3,3,14,7.8,18.8l21.1,21.1h-68.8
			c-14.7,0-26.6,11.9-26.6,26.6s11.9,26.6,26.6,26.6h68.8l-21.1,21.1c-4.8,4.8-7.8,11.5-7.8,18.8c0,14.7,11.9,26.6,26.6,26.6
			c7.3,0,14-3,18.8-7.8l66.5-66.5c4.8-4.8,7.8-11.5,7.8-18.8s-3-14-7.8-18.8L2366.2,552.2z"/>
		<path class="st4" d="M3185,212h68.8l-21.1,21.1c-4.8,4.8-7.8,11.5-7.8,18.8c0,14.7,11.9,26.6,26.6,26.6c7.3,0,14-3,18.8-7.8
			l66.5-66.5c4.8-4.8,7.8-11.5,7.8-18.8c0-7.3-3-14-7.8-18.8l-66.5-66.5c-4.8-4.8-11.5-7.8-18.8-7.8c-14.7,0-26.6,11.9-26.6,26.6
			c0,7.3,3,14,7.8,18.8l21.1,21.1H3185c-14.7,0-26.6,11.9-26.6,26.6C3158.4,200.1,3170.3,212,3185,212z"/>
		<path class="st4" d="M2818.3,100.2c-4.8-4.8-11.5-7.8-18.8-7.8c-14.7,0-26.6,11.9-26.6,26.6c0,7.3,3,14,7.8,18.8l21.1,21.1H2733
			c-14.7,0-26.6,11.9-26.6,26.6c0,14.7,11.9,26.6,26.6,26.6h68.8l-21.1,21.1c-4.8,4.8-7.8,11.5-7.8,18.8c0,14.7,11.9,26.6,26.6,26.6
			c7.3,0,14-3,18.8-7.8l66.5-66.5c4.8-4.8,7.8-11.5,7.8-18.8c0-7.3-3-14-7.8-18.8L2818.3,100.2z"/>
		<path class="st4" d="M2366.2,100.2c-4.8-4.8-11.5-7.8-18.8-7.8c-14.7,0-26.6,11.9-26.6,26.6c0,7.3,3,14,7.8,18.8l21.1,21.1h-68.8
			c-14.7,0-26.6,11.9-26.6,26.6c0,14.7,11.9,26.6,26.6,26.6h68.8l-21.1,21.1c-4.8,4.8-7.8,11.5-7.8,18.8c0,14.7,11.9,26.6,26.6,26.6
			c7.3,0,14-3,18.8-7.8l66.5-66.5c4.8-4.8,7.8-11.5,7.8-18.8c0-7.3-3-14-7.8-18.8L2366.2,100.2z"/>
	</g>
	<rect x="2162" y="-18.5" class="st1" width="1275" height="850"/>
	<circle class="st2" cx="3025.5" cy="637.5" r="79.8"/>
	<circle class="st2" cx="2573.4" cy="637.5" r="79.8"/>
	<circle class="st3" cx="3251.5" cy="411.5" r="79.8"/>
	<circle class="st3" cx="2799.5" cy="411.5" r="79.8"/>
	<circle class="st3" cx="2347.4" cy="411.5" r="79.8"/>
	<circle class="st2" cx="3025.5" cy="185.5" r="79.8"/>
	<circle class="st2" cx="2573.4" cy="185.5" r="79.8"/>
	<g>
		<path class="st4" d="M3270.3,552.2c-4.8-4.8-11.5-7.8-18.8-7.8c-14.7,0-26.6,11.9-26.6,26.6c0,7.3,3,14,7.8,18.8l21.1,21.1H3185
			c-14.7,0-26.6,11.9-26.6,26.6s11.9,26.6,26.6,26.6h68.8l-21.1,21.1c-4.8,4.8-7.8,11.5-7.8,18.8c0,14.7,11.9,26.6,26.6,26.6
			c7.3,0,14-3,18.8-7.8l66.5-66.5c4.8-4.8,7.8-11.5,7.8-18.8s-3-14-7.8-18.8L3270.3,552.2z"/>
		<path class="st4" d="M2818.3,552.2c-4.8-4.8-11.5-7.8-18.8-7.8c-14.7,0-26.6,11.9-26.6,26.6c0,7.3,3,14,7.8,18.8l21.1,21.1H2733
			c-14.7,0-26.6,11.9-26.6,26.6s11.9,26.6,26.6,26.6h68.8l-21.1,21.1c-4.8,4.8-7.8,11.5-7.8,18.8c0,14.7,11.9,26.6,26.6,26.6
			c7.3,0,14-3,18.8-7.8l66.5-66.5c4.8-4.8,7.8-11.5,7.8-18.8s-3-14-7.8-18.8L2818.3,552.2z"/>
		<path class="st4" d="M2592.2,326.2c-4.8-4.8-11.5-7.8-18.8-7.8c-14.7,0-26.6,11.9-26.6,26.6c0,7.3,3,14,7.8,18.8l21.1,21.1H2507
			c-14.7,0-26.6,11.9-26.6,26.6s11.9,26.6,26.6,26.6h68.8l-21.1,21.1c-4.8,4.8-7.8,11.5-7.8,18.8c0,14.7,11.9,26.6,26.6,26.6
			c7.3,0,14-3,18.8-7.8l66.5-66.5c4.8-4.8,7.8-11.5,7.8-18.8s-3-14-7.8-18.8L2592.2,326.2z"/>
		<path class="st4" d="M3044.3,326.2c-4.8-4.8-11.5-7.8-18.8-7.8c-14.7,0-26.6,11.9-26.6,26.6c0,7.3,3,14,7.8,18.8l21.1,21.1H2959
			c-14.7,0-26.6,11.9-26.6,26.6s11.9,26.6,26.6,26.6h68.8l-21.1,21.1c-4.8,4.8-7.8,11.5-7.8,18.8c0,14.7,11.9,26.6,26.6,26.6
			c7.3,0,14-3,18.8-7.8l66.5-66.5c4.8-4.8,7.8-11.5,7.8-18.8s-3-14-7.8-18.8L3044.3,326.2z"/>
		<path class="st4" d="M2366.2,552.2c-4.8-4.8-11.5-7.8-18.8-7.8c-14.7,0-26.6,11.9-26.6,26.6c0,7.3,3,14,7.8,18.8l21.1,21.1h-68.8
			c-14.7,0-26.6,11.9-26.6,26.6s11.9,26.6,26.6,26.6h68.8l-21.1,21.1c-4.8,4.8-7.8,11.5-7.8,18.8c0,14.7,11.9,26.6,26.6,26.6
			c7.3,0,14-3,18.8-7.8l66.5-66.5c4.8-4.8,7.8-11.5,7.8-18.8s-3-14-7.8-18.8L2366.2,552.2z"/>
		<path class="st4" d="M3185,212h68.8l-21.1,21.1c-4.8,4.8-7.8,11.5-7.8,18.8c0,14.7,11.9,26.6,26.6,26.6c7.3,0,14-3,18.8-7.8
			l66.5-66.5c4.8-4.8,7.8-11.5,7.8-18.8c0-7.3-3-14-7.8-18.8l-66.5-66.5c-4.8-4.8-11.5-7.8-18.8-7.8c-14.7,0-26.6,11.9-26.6,26.6
			c0,7.3,3,14,7.8,18.8l21.1,21.1H3185c-14.7,0-26.6,11.9-26.6,26.6C3158.4,200.1,3170.3,212,3185,212z"/>
		<path class="st4" d="M2818.3,100.2c-4.8-4.8-11.5-7.8-18.8-7.8c-14.7,0-26.6,11.9-26.6,26.6c0,7.3,3,14,7.8,18.8l21.1,21.1H2733
			c-14.7,0-26.6,11.9-26.6,26.6c0,14.7,11.9,26.6,26.6,26.6h68.8l-21.1,21.1c-4.8,4.8-7.8,11.5-7.8,18.8c0,14.7,11.9,26.6,26.6,26.6
			c7.3,0,14-3,18.8-7.8l66.5-66.5c4.8-4.8,7.8-11.5,7.8-18.8c0-7.3-3-14-7.8-18.8L2818.3,100.2z"/>
		<path class="st4" d="M2366.2,100.2c-4.8-4.8-11.5-7.8-18.8-7.8c-14.7,0-26.6,11.9-26.6,26.6c0,7.3,3,14,7.8,18.8l21.1,21.1h-68.8
			c-14.7,0-26.6,11.9-26.6,26.6c0,14.7,11.9,26.6,26.6,26.6h68.8l-21.1,21.1c-4.8,4.8-7.8,11.5-7.8,18.8c0,14.7,11.9,26.6,26.6,26.6
			c7.3,0,14-3,18.8-7.8l66.5-66.5c4.8-4.8,7.8-11.5,7.8-18.8c0-7.3-3-14-7.8-18.8L2366.2,100.2z"/>
	</g>
	<rect x="-3270.7" y="6578.3" class="st3" width="1275" height="850"/>
	<circle class="st2" cx="-2407.1" cy="7234.2" r="79.8"/>
	<circle class="st2" cx="-2859.2" cy="7234.2" r="79.8"/>
	<circle class="st5" cx="-2181.1" cy="7008.2" r="79.8"/>
	<circle class="st5" cx="-2633.2" cy="7008.2" r="79.8"/>
	<circle class="st5" cx="-3085.2" cy="7008.2" r="79.8"/>
	<circle class="st2" cx="-2407.1" cy="6782.2" r="79.8"/>
	<circle class="st2" cx="-2859.2" cy="6782.2" r="79.8"/>
	<g>
		<path class="st4" d="M-2162.3,7149c-4.8-4.8-11.5-7.8-18.8-7.8c-14.7,0-26.6,11.9-26.6,26.6c0,7.3,3,14,7.8,18.8l21.1,21.1h-68.8
			c-14.7,0-26.6,11.9-26.6,26.6s11.9,26.6,26.6,26.6h68.8l-21.1,21.1c-4.8,4.8-7.8,11.5-7.8,18.8c0,14.7,11.9,26.6,26.6,26.6
			c7.3,0,14-3,18.8-7.8l66.5-66.5c4.8-4.8,7.8-11.5,7.8-18.8s-3-14-7.8-18.8L-2162.3,7149z"/>
		<path class="st4" d="M-2614.3,7149c-4.8-4.8-11.5-7.8-18.8-7.8c-14.7,0-26.6,11.9-26.6,26.6c0,7.3,3,14,7.8,18.8l21.1,21.1h-68.8
			c-14.7,0-26.6,11.9-26.6,26.6s11.9,26.6,26.6,26.6h68.8l-21.1,21.1c-4.8,4.8-7.8,11.5-7.8,18.8c0,14.7,11.9,26.6,26.6,26.6
			c7.3,0,14-3,18.8-7.8l66.5-66.5c4.8-4.8,7.8-11.5,7.8-18.8s-3-14-7.8-18.8L-2614.3,7149z"/>
		<path class="st4" d="M-2840.4,6922.9c-4.8-4.8-11.5-7.8-18.8-7.8c-14.7,0-26.6,11.9-26.6,26.6c0,7.3,3,14,7.8,18.8l21.1,21.1
			h-68.8c-14.7,0-26.6,11.9-26.6,26.6s11.9,26.6,26.6,26.6h68.8l-21.1,21.1c-4.8,4.8-7.8,11.5-7.8,18.8c0,14.7,11.9,26.6,26.6,26.6
			c7.3,0,14-3,18.8-7.8l66.5-66.5c4.8-4.8,7.8-11.5,7.8-18.8s-3-14-7.8-18.8L-2840.4,6922.9z"/>
		<path class="st4" d="M-2388.3,6922.9c-4.8-4.8-11.5-7.8-18.8-7.8c-14.7,0-26.6,11.9-26.6,26.6c0,7.3,3,14,7.8,18.8l21.1,21.1
			h-68.8c-14.7,0-26.6,11.9-26.6,26.6s11.9,26.6,26.6,26.6h68.8l-21.1,21.1c-4.8,4.8-7.8,11.5-7.8,18.8c0,14.7,11.9,26.6,26.6,26.6
			c7.3,0,14-3,18.8-7.8l66.5-66.5c4.8-4.8,7.8-11.5,7.8-18.8s-3-14-7.8-18.8L-2388.3,6922.9z"/>
		<path class="st4" d="M-3066.4,7149c-4.8-4.8-11.5-7.8-18.8-7.8c-14.7,0-26.6,11.9-26.6,26.6c0,7.3,3,14,7.8,18.8l21.1,21.1h-68.8
			c-14.7,0-26.6,11.9-26.6,26.6s11.9,26.6,26.6,26.6h68.8l-21.1,21.1c-4.8,4.8-7.8,11.5-7.8,18.8c0,14.7,11.9,26.6,26.6,26.6
			c7.3,0,14-3,18.8-7.8l66.5-66.5c4.8-4.8,7.8-11.5,7.8-18.8s-3-14-7.8-18.8L-3066.4,7149z"/>
		<path class="st4" d="M-2247.6,6808.8h68.8l-21.1,21.1c-4.8,4.8-7.8,11.5-7.8,18.8c0,14.7,11.9,26.6,26.6,26.6c7.3,0,14-3,18.8-7.8
			l66.5-66.5c4.8-4.8,7.8-11.5,7.8-18.8c0-7.3-3-14-7.8-18.8l-66.5-66.5c-4.8-4.8-11.5-7.8-18.8-7.8c-14.7,0-26.6,11.9-26.6,26.6
			c0,7.3,3,14,7.8,18.8l21.1,21.1h-68.8c-14.7,0-26.6,11.9-26.6,26.6C-2274.2,6796.9-2262.3,6808.8-2247.6,6808.8z"/>
		<path class="st4" d="M-2614.3,6696.9c-4.8-4.8-11.5-7.8-18.8-7.8c-14.7,0-26.6,11.9-26.6,26.6c0,7.3,3,14,7.8,18.8l21.1,21.1
			h-68.8c-14.7,0-26.6,11.9-26.6,26.6c0,14.7,11.9,26.6,26.6,26.6h68.8l-21.1,21.1c-4.8,4.8-7.8,11.5-7.8,18.8
			c0,14.7,11.9,26.6,26.6,26.6c7.3,0,14-3,18.8-7.8l66.5-66.5c4.8-4.8,7.8-11.5,7.8-18.8c0-7.3-3-14-7.8-18.8L-2614.3,6696.9z"/>
		<path class="st4" d="M-3066.4,6696.9c-4.8-4.8-11.5-7.8-18.8-7.8c-14.7,0-26.6,11.9-26.6,26.6c0,7.3,3,14,7.8,18.8l21.1,21.1
			h-68.8c-14.7,0-26.6,11.9-26.6,26.6c0,14.7,11.9,26.6,26.6,26.6h68.8l-21.1,21.1c-4.8,4.8-7.8,11.5-7.8,18.8
			c0,14.7,11.9,26.6,26.6,26.6c7.3,0,14-3,18.8-7.8l66.5-66.5c4.8-4.8,7.8-11.5,7.8-18.8c0-7.3-3-14-7.8-18.8L-3066.4,6696.9z"/>
	</g>
	<circle class="st2" cx="863.5" cy="656" r="79.8"/>
	<circle class="st2" cx="411.5" cy="656" r="79.8"/>
	<circle class="st5" cx="1089.5" cy="430" r="79.8"/>
	<circle class="st5" cx="637.5" cy="430" r="79.8"/>
	<circle class="st5" cx="185.5" cy="430" r="79.8"/>
	<circle class="st2" cx="863.5" cy="203.9" r="79.8"/>
	<circle class="st2" cx="411.5" cy="203.9" r="79.8"/>
	<path class="st4" d="M1108.3,570.7c-4.8-4.8-11.5-7.8-18.8-7.8c-14.7,0-26.6,11.9-26.6,26.6c0,7.3,3,14,7.8,18.8l21.1,21.1h-68.8
		c-14.7,0-26.6,11.9-26.6,26.6s11.9,26.6,26.6,26.6h68.8l-21.1,21.1c-4.8,4.8-7.8,11.5-7.8,18.8c0,14.7,11.9,26.6,26.6,26.6
		c7.3,0,14-3,18.8-7.8l66.5-66.5c4.8-4.8,7.8-11.5,7.8-18.8s-3-14-7.8-18.8L1108.3,570.7z"/>
	<path class="st4" d="M656.3,570.7c-4.8-4.8-11.5-7.8-18.8-7.8c-14.7,0-26.6,11.9-26.6,26.6c0,7.3,3,14,7.8,18.8l21.1,21.1H571
		c-14.7,0-26.6,11.9-26.6,26.6s11.9,26.6,26.6,26.6h68.8l-21.1,21.1c-4.8,4.8-7.8,11.5-7.8,18.8c0,14.7,11.9,26.6,26.6,26.6
		c7.3,0,14-3,18.8-7.8l66.5-66.5c4.8-4.8,7.8-11.5,7.8-18.8s-3-14-7.8-18.8L656.3,570.7z"/>
	<path class="st4" d="M430.3,344.7c-4.8-4.8-11.5-7.8-18.8-7.8c-14.7,0-26.6,11.9-26.6,26.6c0,7.3,3,14,7.8,18.8l21.1,21.1H345
		c-14.7,0-26.6,11.9-26.6,26.6s11.9,26.6,26.6,26.6h68.8l-21.1,21.1c-4.8,4.8-7.8,11.5-7.8,18.8c0,14.7,11.9,26.6,26.6,26.6
		c7.3,0,14-3,18.8-7.8l66.5-66.5c4.8-4.8,7.8-11.5,7.8-18.8s-3-14-7.8-18.8L430.3,344.7z"/>
	<path class="st4" d="M882.3,344.7c-4.8-4.8-11.5-7.8-18.8-7.8c-14.7,0-26.6,11.9-26.6,26.6c0,7.3,3,14,7.8,18.8l21.1,21.1H797
		c-14.7,0-26.6,11.9-26.6,26.6s11.9,26.6,26.6,26.6h68.8l-21.1,21.1c-4.8,4.8-7.8,11.5-7.8,18.8c0,14.7,11.9,26.6,26.6,26.6
		c7.3,0,14-3,18.8-7.8l66.5-66.5c4.8-4.8,7.8-11.5,7.8-18.8s-3-14-7.8-18.8L882.3,344.7z"/>
	<path class="st4" d="M204.3,570.7c-4.8-4.8-11.5-7.8-18.8-7.8c-14.7,0-26.6,11.9-26.6,26.6c0,7.3,3,14,7.8,18.8l21.1,21.1H119
		c-14.7,0-26.6,11.9-26.6,26.6s11.9,26.6,26.6,26.6h68.8l-21.1,21.1c-4.8,4.8-7.8,11.5-7.8,18.8c0,14.7,11.9,26.6,26.6,26.6
		c7.3,0,14-3,18.8-7.8l66.5-66.5c4.8-4.8,7.8-11.5,7.8-18.8s-3-14-7.8-18.8L204.3,570.7z"/>
	<path class="st4" d="M1023.1,230.5h68.8l-21.1,21.1c-4.8,4.8-7.8,11.5-7.8,18.8c0,14.7,11.9,26.6,26.6,26.6c7.3,0,14-3,18.8-7.8
		l66.5-66.5c4.8-4.8,7.8-11.5,7.8-18.8c0-7.3-3-14-7.8-18.8l-66.5-66.5c-4.8-4.8-11.5-7.8-18.8-7.8c-14.7,0-26.6,11.9-26.6,26.6
		c0,7.3,3,14,7.8,18.8l21.1,21.1h-68.8c-14.7,0-26.6,11.9-26.6,26.6C996.5,218.6,1008.4,230.5,1023.1,230.5z"/>
	<path class="st4" d="M656.3,118.7c-4.8-4.8-11.5-7.8-18.8-7.8c-14.7,0-26.6,11.9-26.6,26.6c0,7.3,3,14,7.8,18.8l21.1,21.1H571
		c-14.7,0-26.6,11.9-26.6,26.6c0,14.7,11.9,26.6,26.6,26.6h68.8l-21.1,21.1c-4.8,4.8-7.8,11.5-7.8,18.8c0,14.7,11.9,26.6,26.6,26.6
		c7.3,0,14-3,18.8-7.8l66.5-66.5c4.8-4.8,7.8-11.5,7.8-18.8c0-7.3-3-14-7.8-18.8L656.3,118.7z"/>
	<path class="st4" d="M204.3,118.7c-4.8-4.8-11.5-7.8-18.8-7.8c-14.7,0-26.6,11.9-26.6,26.6c0,7.3,3,14,7.8,18.8l21.1,21.1H119
		c-14.7,0-26.6,11.9-26.6,26.6c0,14.7,11.9,26.6,26.6,26.6h68.8l-21.1,21.1c-4.8,4.8-7.8,11.5-7.8,18.8c0,14.7,11.9,26.6,26.6,26.6
		c7.3,0,14-3,18.8-7.8l66.5-66.5c4.8-4.8,7.8-11.5,7.8-18.8c0-7.3-3-14-7.8-18.8L204.3,118.7z"/>
</g>
<g>
</g>
<g>
</g>
<g>
</g>
<g>
</g>
<g>
</g>
<g>
</g>
<g>
</g>
<g>
</g>
<g>
</g>
<g>
</g>
<g>
</g>
<g>
</g>
<g>
</g>
<g>
</g>
<g>
</g>
</svg>
