<?xml version="1.0" encoding="utf-8"?>
<!-- Generator: Adobe Illustrator 21.0.0, SVG Export Plug-In . SVG Version: 6.00 Build 0)  -->
<!DOCTYPE svg PUBLIC "-//W3C//DTD SVG 1.1//EN" "http://www.w3.org/Graphics/SVG/1.1/DTD/svg11.dtd">
<svg version="1.1" id="Laag_1" xmlns="http://www.w3.org/2000/svg" xmlns:xlink="http://www.w3.org/1999/xlink" x="0px" y="0px"
	 width="1275px" height="850px" viewBox="0 0 1275 850" style="enable-background:new 0 0 1275 850;" xml:space="preserve">
<style type="text/css">
	.st0{fill:none;}
	.st1{fill:#F7F5F0;}
	.st2{fill:#0F1941;}
	.st3{fill:#FFB511;}
</style>
<rect class="st0" width="1275" height="850"/>
<path class="st1" d="M702.2,277.2H406.5c-10.2,0-18.5,8.3-18.5,18.5V462c0,10.2,8.3,18.5,18.5,18.5H513c-8.8,9.8-14.1,22.8-14.1,37
	h110.9c0-14.2-5.3-27.1-14.1-37h106.5c10.2,0,18.5-8.3,18.5-18.5V295.7C720.7,285.4,712.4,277.2,702.2,277.2z"/>
<path class="st2" d="M960.9,554.3H295.7c-10.2,0-18.5-8.3-18.5-18.5l0,0c0-10.2,8.3-18.5,18.5-18.5h665.2c10.2,0,18.5,8.3,18.5,18.5
	l0,0C979.3,546.1,971.1,554.3,960.9,554.3z"/>
<path class="st3" d="M850,295.7c0,51-41.4,92.4-92.4,92.4c-51,0-92.4-41.4-92.4-92.4c0-51,41.4-92.4,92.4-92.4
	C808.6,203.3,850,244.6,850,295.7"/>
<path class="st3" d="M850,498.9c0-51-41.4-92.4-92.4-92.4s-92.4,41.4-92.4,92.4l0,0v147.8H850V498.9L850,498.9z"/>
<g>
</g>
<g>
</g>
<g>
</g>
<g>
</g>
<g>
</g>
<g>
</g>
<g>
</g>
<g>
</g>
<g>
</g>
<g>
</g>
<g>
</g>
<g>
</g>
<g>
</g>
<g>
</g>
<g>
</g>
</svg>
