<?xml version="1.0" encoding="utf-8"?>
<!-- Generator: Adobe Illustrator 21.0.0, SVG Export Plug-In . SVG Version: 6.00 Build 0)  -->
<!DOCTYPE svg PUBLIC "-//W3C//DTD SVG 1.1//EN" "http://www.w3.org/Graphics/SVG/1.1/DTD/svg11.dtd">
<svg version="1.1" id="Laag_1" xmlns="http://www.w3.org/2000/svg" xmlns:xlink="http://www.w3.org/1999/xlink" x="0px" y="0px"
	 width="1275px" height="850px" viewBox="0 0 1275 850" style="enable-background:new 0 0 1275 850;" xml:space="preserve">
<style type="text/css">
	.st0{fill:none;}
	.st1{fill:#2175D9;}
	.st2{fill:#FFB511;}
	.st3{fill:#F7F5F0;}
</style>
<rect class="st0" width="1275" height="850"/>
<path class="st1" d="M665.2,184.9c0,30.7-24.9,55.5-55.5,55.5c-30.7,0-55.5-24.9-55.5-55.5s24.9-55.5,55.5-55.5
	C640.4,129.3,665.2,154.2,665.2,184.9"/>
<path class="st2" d="M757.6,295.8c0,30.7-24.9,55.5-55.5,55.5c-30.7,0-55.5-24.9-55.5-55.5s24.9-55.5,55.5-55.5
	C732.7,240.2,757.6,265.1,757.6,295.8"/>
<path class="st3" d="M572.6,295.8c0,30.7-24.9,55.5-55.5,55.5c-30.7,0-55.5-24.9-55.5-55.5s24.9-55.5,55.5-55.5
	C547.8,240.2,572.6,265.1,572.6,295.8"/>
<path class="st2" d="M665.2,425.1c0,30.7-24.9,55.5-55.5,55.5c-30.7,0-55.5-24.9-55.5-55.5s24.9-55.5,55.5-55.5
	C640.4,369.6,665.2,394.4,665.2,425.1"/>
<path class="st3" d="M850,425.3c0,30.7-24.9,55.5-55.5,55.5c-30.7,0-55.5-24.9-55.5-55.5s24.9-55.5,55.5-55.5
	C825.1,369.7,850,394.6,850,425.3"/>
<path class="st2" d="M665.2,554.5c0-30.7-24.9-55.5-55.5-55.5c-30.7,0-55.5,24.9-55.5,55.5c0,0,0,0,0,0v92.2h111.1L665.2,554.5
	L665.2,554.5z"/>
<path class="st1" d="M480.4,425.3c0,30.7-24.9,55.5-55.5,55.5c-30.7,0-55.5-24.9-55.5-55.5s24.9-55.5,55.5-55.5
	C455.6,369.7,480.4,394.6,480.4,425.3"/>
<path class="st1" d="M480.4,554.5c0-30.7-24.9-55.5-55.5-55.5c-30.7,0-55.5,24.9-55.5,55.5c0,0,0,0,0,0v92.2h111.1L480.4,554.5
	L480.4,554.5z"/>
<path class="st3" d="M850,554.5c0-30.7-24.9-55.5-55.5-55.5c-30.7,0-55.5,24.9-55.5,55.5h-0.2v92.2h111.1v-87.6
	C849.9,557.6,850,556.1,850,554.5z"/>
<g>
</g>
<g>
</g>
<g>
</g>
<g>
</g>
<g>
</g>
<g>
</g>
<g>
</g>
<g>
</g>
<g>
</g>
<g>
</g>
<g>
</g>
<g>
</g>
<g>
</g>
<g>
</g>
<g>
</g>
</svg>
