<?xml version="1.0" encoding="utf-8"?>
<!-- Generator: Adobe Illustrator 21.0.0, SVG Export Plug-In . SVG Version: 6.00 Build 0)  -->
<!DOCTYPE svg PUBLIC "-//W3C//DTD SVG 1.1//EN" "http://www.w3.org/Graphics/SVG/1.1/DTD/svg11.dtd">
<svg version="1.1" id="Laag_1" xmlns="http://www.w3.org/2000/svg" xmlns:xlink="http://www.w3.org/1999/xlink" x="0px" y="0px"
	 width="1275px" height="850px" viewBox="0 0 1275 850" style="enable-background:new 0 0 1275 850;" xml:space="preserve">
<style type="text/css">
	.st0{fill:none;}
	.st1{fill:#FFB511;}
	.st2{fill:#2175D9;}
</style>
<rect class="st0" width="1275" height="850"/>
<g>
	<path class="st1" d="M424.6,481c0-30.7-24.9-55.6-55.6-55.6c-30.7,0-55.6,24.9-55.6,55.6c0,0,0,0,0,0v92.3h111.1L424.6,481
		L424.6,481z"/>
	<circle class="st1" cx="369.1" cy="351.7" r="55.6"/>
</g>
<g>
	<path class="st1" d="M609.5,481c0-30.7-24.9-55.6-55.6-55.6c-30.7,0-55.6,24.9-55.6,55.6c0,0,0,0,0,0v92.3h111.1L609.5,481
		L609.5,481z"/>
	<circle class="st1" cx="554" cy="351.7" r="55.6"/>
</g>
<g>
	<path class="st1" d="M979.1,481c0-30.7-24.9-55.6-55.6-55.6c-30.7,0-55.6,24.9-55.6,55.6c0,0,0,0,0,0v92.3h111.1L979.1,481
		L979.1,481z"/>
	<circle class="st1" cx="923.5" cy="351.7" r="55.6"/>
</g>
<g>
	<path class="st2" d="M794.4,407.1c0-30.7-24.9-55.6-55.6-55.6s-55.6,24.9-55.6,55.6v92h111.1L794.4,407.1L794.4,407.1z"/>
	<circle class="st2" cx="738.9" cy="277.8" r="55.6"/>
</g>
<g>
</g>
<g>
</g>
<g>
</g>
<g>
</g>
<g>
</g>
<g>
</g>
<g>
</g>
<g>
</g>
<g>
</g>
<g>
</g>
<g>
</g>
<g>
</g>
<g>
</g>
<g>
</g>
<g>
</g>
</svg>
