<?xml version="1.0" encoding="utf-8"?>
<!-- Generator: Adobe Illustrator 21.0.0, SVG Export Plug-In . SVG Version: 6.00 Build 0)  -->
<!DOCTYPE svg PUBLIC "-//W3C//DTD SVG 1.1//EN" "http://www.w3.org/Graphics/SVG/1.1/DTD/svg11.dtd">
<svg version="1.1" id="Laag_1" xmlns="http://www.w3.org/2000/svg" xmlns:xlink="http://www.w3.org/1999/xlink" x="0px" y="0px"
	 width="1275px" height="850px" viewBox="0 0 1275 850" style="enable-background:new 0 0 1275 850;" xml:space="preserve">
<style type="text/css">
	.st0{fill:none;}
	.st1{fill:#F7F5F0;}
	.st2{fill:#0F1941;}
	.st3{fill:#FFB511;}
</style>
<rect class="st0" width="1275" height="850"/>
<path class="st1" d="M443.5,360.3c0,45.9-37.2,83.2-83.2,83.2c-45.9,0-83.2-37.2-83.2-83.2s37.2-83.2,83.2-83.2
	C406.3,277.2,443.5,314.4,443.5,360.3"/>
<path class="st1" d="M443.5,545.1c0-45.9-37.2-83.2-83.2-83.2c-45.9,0-83.2,37.2-83.2,83.2c0,1.1,0,2.2,0.1,3.3h-0.1v135.3h166.3
	V548.4h-0.1C443.4,547.3,443.5,546.2,443.5,545.1z"/>
<path class="st2" d="M960.9,360.3c0,45.9-37.2,83.2-83.2,83.2c-45.9,0-83.2-37.2-83.2-83.2s37.2-83.2,83.2-83.2
	C923.6,277.2,960.9,314.4,960.9,360.3"/>
<path class="st2" d="M960.9,545.1c0-45.9-37.2-83.2-83.2-83.2c-45.9,0-83.2,37.2-83.2,83.2c0,1.1,0,2.2,0.1,3.3h-0.1v135.3h166.3
	V548.4h-0.1C960.8,547.3,960.9,546.2,960.9,545.1z"/>
<path class="st3" d="M739.1,249.5c0,66.3-53.8,120.1-120.1,120.1c-66.3,0-120.1-53.8-120.1-120.1S552.7,129.3,619,129.3
	C685.4,129.3,739.1,183.1,739.1,249.5"/>
<path class="st3" d="M619,406.5c-66.3,0-120.1,53.8-120.1,120.1v212.5h240.2V526.6C739.1,460.3,685.4,406.5,619,406.5z"/>
<path class="st1" d="M1016.3,553h-37v-37c0-10.2-8.3-18.5-18.5-18.5h0c-10.2,0-18.5,8.3-18.5,18.5v37h-37
	c-10.2,0-18.5,8.3-18.5,18.5v0c0,10.2,8.3,18.5,18.5,18.5h37v37c0,10.2,8.3,18.5,18.5,18.5h0c10.2,0,18.5-8.3,18.5-18.5v-37h37
	c10.2,0,18.5-8.3,18.5-18.5v0C1034.8,561.3,1026.5,553,1016.3,553z"/>
<g>
</g>
<g>
</g>
<g>
</g>
<g>
</g>
<g>
</g>
<g>
</g>
<g>
</g>
<g>
</g>
<g>
</g>
<g>
</g>
<g>
</g>
<g>
</g>
<g>
</g>
<g>
</g>
<g>
</g>
</svg>
