<?xml version="1.0" encoding="utf-8"?>
<!-- Generator: Adobe Illustrator 21.0.0, SVG Export Plug-In . SVG Version: 6.00 Build 0)  -->
<!DOCTYPE svg PUBLIC "-//W3C//DTD SVG 1.1//EN" "http://www.w3.org/Graphics/SVG/1.1/DTD/svg11.dtd">
<svg version="1.1" id="Laag_1" xmlns="http://www.w3.org/2000/svg" xmlns:xlink="http://www.w3.org/1999/xlink" x="0px" y="0px"
	 width="1275px" height="850px" viewBox="0 0 1275 850" style="enable-background:new 0 0 1275 850;" xml:space="preserve">
<style type="text/css">
	.st0{fill:#F7F5F0;}
	.st1{fill:#FFB511;}
	.st2{fill:none;stroke:#F7F5F0;stroke-width:74.0024;stroke-linecap:round;stroke-miterlimit:10;}
	.st3{fill:#0F1941;}
	.st4{fill:none;}
</style>
<circle class="st0" cx="371.3" cy="530" r="34.4"/>
<path class="st1" d="M952.2,74.4H562.3c-45.2,0-82.2,37-82.2,82.2v252.7c0,45.2,37,73,82.2,73h198.3l138.1,70.6
	c11.4,5.8,24.9-2.4,24.9-15.1v-55.6h28.7c45.2,0,82.2-27.8,82.2-73V156.6C1034.4,111.4,997.4,74.4,952.2,74.4z"/>
<path class="st2" d="M888.6,175.3"/>
<path class="st2" d="M627.1,175.3"/>
<path class="st2" d="M888.6,269.6"/>
<path class="st2" d="M627.1,269.6"/>
<path class="st2" d="M888.6,358.1"/>
<path class="st0" d="M905.1,222.2H609.4c-10.2,0-18.5-8.3-18.5-18.5s8.3-18.5,18.5-18.5h295.7c10.2,0,18.5,8.3,18.5,18.5
	S915.3,222.2,905.1,222.2z"/>
<path class="st0" d="M905.1,296.1H609.4c-10.2,0-18.5-8.3-18.5-18.5c0-10.2,8.3-18.5,18.5-18.5h295.7c10.2,0,18.5,8.3,18.5,18.5
	C923.6,287.8,915.3,296.1,905.1,296.1z"/>
<path class="st0" d="M905.1,370H609.4c-10.2,0-18.5-8.3-18.5-18.5c0-10.2,8.3-18.5,18.5-18.5h295.7c10.2,0,18.5,8.3,18.5,18.5
	C923.6,361.7,915.3,370,905.1,370z"/>
<path class="st2" d="M627.1,358.1"/>
<path class="st3" d="M536.7,389.6H386.5c-91.2,0-165.2,74-165.2,165.2c0,79,55.4,145,129.4,161.3v43.5c0,12.7,13.5,20.9,24.9,15.1
	L482.5,720h54.3c91.2,0,165.2-74,165.2-165.2S628,389.6,536.7,389.6z"/>
<circle class="st4" cx="517.1" cy="619.5" r="46.2"/>
<ellipse transform="matrix(0.7071 -0.7071 0.7071 0.7071 -237.3762 427.1636)" class="st4" cx="396.9" cy="500.1" rx="46.2" ry="46.2"/>
<circle class="st0" cx="461.6" cy="554.8" r="18.5"/>
<circle class="st0" cx="554" cy="554.8" r="18.5"/>
<circle class="st0" cx="369.2" cy="554.8" r="18.5"/>
<rect class="st4" width="1275" height="850"/>
<g>
</g>
<g>
</g>
<g>
</g>
<g>
</g>
<g>
</g>
<g>
</g>
<g>
</g>
<g>
</g>
<g>
</g>
<g>
</g>
<g>
</g>
<g>
</g>
<g>
</g>
<g>
</g>
<g>
</g>
</svg>
