<?xml version="1.0" encoding="utf-8"?>
<!-- Generator: Adobe Illustrator 21.0.0, SVG Export Plug-In . SVG Version: 6.00 Build 0)  -->
<!DOCTYPE svg PUBLIC "-//W3C//DTD SVG 1.1//EN" "http://www.w3.org/Graphics/SVG/1.1/DTD/svg11.dtd">
<svg version="1.1" xmlns="http://www.w3.org/2000/svg" xmlns:xlink="http://www.w3.org/1999/xlink" x="0px" y="0px" width="1275px"
	 height="850px" viewBox="0 0 1275 850" style="enable-background:new 0 0 1275 850;" xml:space="preserve">
<style type="text/css">
	.st0{fill:none;}
	.st1{fill:#E74536;}
	.st2{fill:#0F1941;}
	.st3{fill:#F7F5F0;}
</style>
<g id="Laag_1">
</g>
<g id="Laag_2">
</g>
<g id="artwork">
	<rect class="st0" width="1275" height="850"/>
	<circle class="st1" cx="433.4" cy="553.5" r="139.9"/>
	<path class="st2" d="M1275,200c-53.6-44.2-122.3-70.7-197.1-70.7H822.4c-43.7,0-79.1,35.4-79.1,79.1c0,14.1,3.7,27.4,10.2,38.9
		c-33.9,8.9-58.9,39.8-58.9,76.5c0,14.3,3.8,27.7,10.4,39.3c-34,8.9-59.1,39.8-59.1,76.5c0,12.8,3.1,25,8.5,35.7H460.4
		c-1,0-1.9-0.1-2.9-0.1c-43.7,0-79.1,35.4-79.1,79.1c0,43.7,35.4,79.1,79.1,79.1v0.1h492.6v18.2H745.9c-1.5,6.1-2.3,12.4-2.3,18.9
		c0,43.8,35.5,79.3,79.3,79.3h254.9v-0.1c74.9,0,143.5-26.5,197.1-70.7V200z"/>
	<circle class="st3" cx="457.5" cy="554.2" r="58.6"/>
	<g>
	</g>
	<g>
	</g>
	<g>
	</g>
	<g>
	</g>
	<g>
	</g>
	<g>
	</g>
	<g>
	</g>
	<g>
	</g>
	<g>
	</g>
	<g>
	</g>
	<g>
	</g>
	<g>
	</g>
	<g>
	</g>
	<g>
	</g>
	<g>
	</g>
</g>
</svg>
