<?xml version="1.0" encoding="utf-8"?>
<!-- Generator: Adobe Illustrator 22.0.0, SVG Export Plug-In . SVG Version: 6.00 Build 0)  -->
<!DOCTYPE svg PUBLIC "-//W3C//DTD SVG 1.1//EN" "http://www.w3.org/Graphics/SVG/1.1/DTD/svg11.dtd">
<svg version="1.1" id="Laag_1" xmlns="http://www.w3.org/2000/svg" xmlns:xlink="http://www.w3.org/1999/xlink" x="0px" y="0px"
	 width="1275px" height="850px" viewBox="0 0 1275 850" style="enable-background:new 0 0 1275 850;" xml:space="preserve">
<metadata><?xpacket begin="﻿" id="W5M0MpCehiHzreSzNTczkc9d"?>
<x:xmpmeta xmlns:x="adobe:ns:meta/" x:xmptk="Adobe XMP Core 5.6-c143 79.161210, 2017/08/11-10:28:36        ">
   <rdf:RDF xmlns:rdf="http://www.w3.org/1999/02/22-rdf-syntax-ns#">
      <rdf:Description rdf:about=""/>
   </rdf:RDF>
</x:xmpmeta>
                                                                                                    
                                                                                                    
                                                                                                    
                                                                                                    
                                                                                                    
                                                                                                    
                                                                                                    
                                                                                                    
                                                                                                    
                                                                                                    
                                                                                                    
                                                                                                    
                                                                                                    
                                                                                                    
                                                                                                    
                                                                                                    
                                                                                                    
                                                                                                    
                                                                                                    
                                                                                                    
                           
<?xpacket end="w"?></metadata>
<style type="text/css">
	.st0{fill:none;}
	.st1{fill:#2175D9;}
	.st2{fill:#0F1941;}
</style>
<rect class="st0" width="1275" height="850"/>
<path class="st1" d="M822,216.1c-55.9-55.9-130.2-86.7-209.2-86.7c-79,0-153.3,30.8-209.2,86.7c-28.8,28.8-50.9,62.5-65.6,99.2
	c-53.9,7.7-95.3,54-95.3,110.1c0,56.1,41.5,102.4,95.4,110.1c6.6,16.4,14.6,32.2,24.1,47.3c5.4,8.6,16.8,11.2,25.5,5.8
	c8.6-5.4,11.2-16.8,5.8-25.5c-25.9-41.2-39.6-88.8-39.6-137.6v0c0-69.2,26.9-134.2,75.8-183.1c48.9-48.9,113.9-75.8,183.1-75.8
	s134.2,26.9,183.1,75.8c48.9,48.9,75.8,113.9,75.8,183.1s-26.9,134.2-75.8,183.1c-36.8,36.8-82.7,61.1-132.6,70.9
	c3.1,7,4.9,14.7,4.9,22.8c0,4.9-0.6,9.7-1.9,14.2C725,705.7,779,677.6,822,634.6c55.9-55.9,86.7-130.2,86.7-209.2
	S877.9,272,822,216.1z"/>
<circle class="st2" cx="612.8" cy="702.2" r="55.4"/>
</svg>
