<?xml version="1.0" encoding="utf-8"?>
<!-- Generator: Adobe Illustrator 21.0.0, SVG Export Plug-In . SVG Version: 6.00 Build 0)  -->
<!DOCTYPE svg PUBLIC "-//W3C//DTD SVG 1.1//EN" "http://www.w3.org/Graphics/SVG/1.1/DTD/svg11.dtd">
<svg version="1.1" id="Laag_1" xmlns="http://www.w3.org/2000/svg" xmlns:xlink="http://www.w3.org/1999/xlink" x="0px" y="0px"
	 width="1275px" height="850px" viewBox="0 0 1275 850" style="enable-background:new 0 0 1275 850;" xml:space="preserve">
<style type="text/css">
	.st0{fill:none;}
	.st1{fill:#0F1941;}
	.st2{fill:#FFB511;}
	.st3{fill:#F7F5F0;}
</style>
<rect class="st0" width="1275" height="850"/>
<circle class="st1" cx="591.3" cy="295.7" r="92.4"/>
<path class="st1" d="M591.3,425c-51,0-92.4,41.4-92.4,92.4v147.8h184.8V517.4C683.7,466.4,642.3,425,591.3,425z"/>
<circle class="st2" cx="720.7" cy="517.4" r="92.4"/>
<g>
	<path class="st3" d="M702.2,572.8c-4.7,0-9.5-1.8-13.1-5.4c-7.2-7.2-7.2-18.9,0-26.1l23.9-23.9l-23.9-23.9
		c-7.2-7.2-7.2-18.9,0-26.1c7.2-7.2,18.9-7.2,26.1,0l37,37c3.5,3.5,5.4,8.2,5.4,13.1s-1.9,9.6-5.4,13.1l-37,37
		C711.6,571,706.9,572.8,702.2,572.8z"/>
</g>
<g>
</g>
<g>
</g>
<g>
</g>
<g>
</g>
<g>
</g>
<g>
</g>
<g>
</g>
<g>
</g>
<g>
</g>
<g>
</g>
<g>
</g>
<g>
</g>
<g>
</g>
<g>
</g>
<g>
</g>
</svg>
