<?xml version="1.0" encoding="utf-8"?>
<!-- Generator: Adobe Illustrator 21.0.0, SVG Export Plug-In . SVG Version: 6.00 Build 0)  -->
<!DOCTYPE svg PUBLIC "-//W3C//DTD SVG 1.1//EN" "http://www.w3.org/Graphics/SVG/1.1/DTD/svg11.dtd">
<svg version="1.1" id="Laag_1" xmlns="http://www.w3.org/2000/svg" xmlns:xlink="http://www.w3.org/1999/xlink" x="0px" y="0px"
	 width="1275px" height="850px" viewBox="0 0 1275 850" style="enable-background:new 0 0 1275 850;" xml:space="preserve">
<style type="text/css">
	.st0{fill:none;}
	.st1{fill:#F7F5F0;}
	.st2{fill:#FFB511;}
	.st3{fill:#2175D9;}
	.st4{fill:#0F1941;}
</style>
<rect class="st0" width="1275" height="850"/>
<circle class="st1" cx="628.3" cy="406.5" r="184.8"/>
<circle class="st2" cx="628.3" cy="406.5" r="184.8"/>
<circle class="st3" cx="628.3" cy="332.6" r="55.4"/>
<path class="st3" d="M683.7,462c0-30.6-24.8-55.4-55.4-55.4s-55.4,24.8-55.4,55.4v73.9h110.9V462z"/>
<path class="st4" d="M905.4,665.1c0-0.6,0-1.1-0.1-1.7c0-0.3-0.1-0.6-0.1-0.8c0-0.3-0.1-0.6-0.1-0.9c-0.1-0.3-0.1-0.6-0.2-0.9
	c-0.1-0.3-0.1-0.6-0.2-0.8c-0.1-0.3-0.2-0.6-0.3-0.9c-0.1-0.3-0.2-0.6-0.3-0.8c-0.1-0.3-0.2-0.5-0.4-0.8c-0.1-0.3-0.3-0.6-0.4-0.9
	c-0.1-0.2-0.3-0.5-0.4-0.7c-0.2-0.3-0.3-0.6-0.5-0.8c-0.2-0.3-0.4-0.5-0.5-0.7c-0.2-0.2-0.3-0.5-0.5-0.7c-0.3-0.4-0.7-0.8-1-1.2
	c-0.1-0.1-0.1-0.1-0.2-0.2L797.5,549.6C830.2,511,850,461,850,406.5c0-122.3-99.5-221.7-221.7-221.7s-221.7,99.5-221.7,221.7
	S506,628.3,628.3,628.3c54.5,0,104.5-19.8,143.1-52.5l102.5,102.5c0,0,0.1,0.1,0.1,0.1c0.4,0.4,0.8,0.8,1.2,1.1
	c0.2,0.2,0.5,0.3,0.7,0.5c0.3,0.2,0.5,0.4,0.8,0.6c0.3,0.2,0.5,0.3,0.8,0.5c0.2,0.1,0.5,0.3,0.7,0.4c0.3,0.1,0.6,0.3,0.8,0.4
	c0.3,0.1,0.5,0.3,0.8,0.4c0.3,0.1,0.5,0.2,0.8,0.3c0.3,0.1,0.6,0.2,0.9,0.3c0.3,0.1,0.6,0.1,0.8,0.2c0.3,0.1,0.6,0.2,0.9,0.2
	c0.3,0.1,0.6,0.1,1,0.1c0.3,0,0.6,0.1,0.8,0.1c0.6,0.1,1.2,0.1,1.8,0.1c0,0,0,0,0.1,0c0,0,0,0,0.1,0c0.6,0,1.2,0,1.8-0.1
	c0.3,0,0.6-0.1,0.8-0.1c0.3,0,0.6-0.1,0.9-0.1c0.3-0.1,0.6-0.2,0.9-0.2c0.3-0.1,0.5-0.1,0.8-0.2c0.3-0.1,0.6-0.2,0.9-0.3
	c0.3-0.1,0.5-0.2,0.8-0.3c0.3-0.1,0.6-0.3,0.8-0.4c0.3-0.1,0.5-0.2,0.8-0.4c0.3-0.1,0.5-0.3,0.8-0.5c0.3-0.2,0.5-0.3,0.8-0.5
	c0.3-0.2,0.6-0.4,0.8-0.6c0.2-0.2,0.4-0.3,0.6-0.5c0.9-0.8,1.8-1.6,2.6-2.6c0.2-0.2,0.3-0.4,0.5-0.6c0.2-0.3,0.4-0.6,0.6-0.8
	c0.2-0.2,0.3-0.5,0.5-0.8c0.2-0.3,0.3-0.5,0.5-0.8c0.1-0.3,0.3-0.5,0.4-0.8c0.1-0.3,0.3-0.6,0.4-0.8c0.1-0.3,0.2-0.5,0.3-0.8
	c0.1-0.3,0.2-0.6,0.3-0.9c0.1-0.3,0.1-0.5,0.2-0.8c0.1-0.3,0.2-0.6,0.2-1c0.1-0.3,0.1-0.6,0.1-0.9c0-0.3,0.1-0.6,0.1-0.9
	c0.1-0.5,0.1-1.1,0.1-1.6c0-0.1,0-0.1,0-0.2C905.4,665.2,905.4,665.1,905.4,665.1z M628.3,591.3c-101.9,0-184.8-82.9-184.8-184.8
	c0-101.9,82.9-184.8,184.8-184.8S813,304.6,813,406.5C813,508.4,730.1,591.3,628.3,591.3z"/>
<g>
</g>
<g>
</g>
<g>
</g>
<g>
</g>
<g>
</g>
<g>
</g>
<g>
</g>
<g>
</g>
<g>
</g>
<g>
</g>
<g>
</g>
<g>
</g>
<g>
</g>
<g>
</g>
<g>
</g>
</svg>
