<?xml version="1.0" encoding="utf-8"?>
<!-- Generator: Adobe Illustrator 21.0.0, SVG Export Plug-In . SVG Version: 6.00 Build 0)  -->
<!DOCTYPE svg PUBLIC "-//W3C//DTD SVG 1.1//EN" "http://www.w3.org/Graphics/SVG/1.1/DTD/svg11.dtd">
<svg version="1.1" id="Laag_1" xmlns="http://www.w3.org/2000/svg" xmlns:xlink="http://www.w3.org/1999/xlink" x="0px" y="0px"
	 width="1275px" height="850px" viewBox="0 0 1275 850" style="enable-background:new 0 0 1275 850;" xml:space="preserve">
<style type="text/css">
	.st0{fill:#2175D9;}
	.st1{fill:#0F1941;}
	.st2{fill:#FFB511;}
	.st3{fill:none;}
</style>
<path class="st0" d="M813,166.3H591.3L462,295.7v351.1c0,10.2,8.3,18.5,18.5,18.5H813c10.2,0,18.5-8.3,18.5-18.5v-462
	C831.5,174.6,823.2,166.3,813,166.3z"/>
<circle class="st1" cx="757.6" cy="240.2" r="37"/>
<path class="st1" d="M757.6,295.7c-20.4,0-37,16.5-37,37V388h73.9v-55.4C794.6,312.2,778,295.7,757.6,295.7z"/>
<path class="st1" d="M785.3,480.4H508.2c-5.1,0-9.2-4.1-9.2-9.2v0c0-5.1,4.1-9.2,9.2-9.2h277.2c5.1,0,9.2,4.1,9.2,9.2v0
	C794.6,476.3,790.4,480.4,785.3,480.4z"/>
<path class="st1" d="M785.3,535.9H508.2c-5.1,0-9.2-4.1-9.2-9.2l0,0c0-5.1,4.1-9.2,9.2-9.2h277.2c5.1,0,9.2,4.1,9.2,9.2l0,0
	C794.6,531.7,790.4,535.9,785.3,535.9z"/>
<path class="st1" d="M711.4,591.3H508.2c-5.1,0-9.2-4.1-9.2-9.2l0,0c0-5.1,4.1-9.2,9.2-9.2h203.3c5.1,0,9.2,4.1,9.2,9.2l0,0
	C720.7,587.2,716.5,591.3,711.4,591.3z"/>
<path class="st2" d="M554.3,295.7H462l129.3-129.3v92.4C591.3,279.1,574.8,295.7,554.3,295.7z"/>
<rect class="st3" width="1275" height="850"/>
<g>
</g>
<g>
</g>
<g>
</g>
<g>
</g>
<g>
</g>
<g>
</g>
<g>
</g>
<g>
</g>
<g>
</g>
<g>
</g>
<g>
</g>
<g>
</g>
<g>
</g>
<g>
</g>
<g>
</g>
</svg>
