<?xml version="1.0" encoding="utf-8"?>
<!-- Generator: Adobe Illustrator 22.0.0, SVG Export Plug-In . SVG Version: 6.00 Build 0)  -->
<!DOCTYPE svg PUBLIC "-//W3C//DTD SVG 1.1//EN" "http://www.w3.org/Graphics/SVG/1.1/DTD/svg11.dtd">
<svg version="1.1" id="Laag_1" xmlns="http://www.w3.org/2000/svg" xmlns:xlink="http://www.w3.org/1999/xlink" x="0px" y="0px"
	 width="1275px" height="850px" viewBox="0 0 1275 850" style="enable-background:new 0 0 1275 850;" xml:space="preserve">
<metadata><?xpacket begin="﻿" id="W5M0MpCehiHzreSzNTczkc9d"?>
<x:xmpmeta xmlns:x="adobe:ns:meta/" x:xmptk="Adobe XMP Core 5.6-c143 79.161210, 2017/08/11-10:28:36        ">
   <rdf:RDF xmlns:rdf="http://www.w3.org/1999/02/22-rdf-syntax-ns#">
      <rdf:Description rdf:about=""/>
   </rdf:RDF>
</x:xmpmeta>
                                                                                                    
                                                                                                    
                                                                                                    
                                                                                                    
                                                                                                    
                                                                                                    
                                                                                                    
                                                                                                    
                                                                                                    
                                                                                                    
                                                                                                    
                                                                                                    
                                                                                                    
                                                                                                    
                                                                                                    
                                                                                                    
                                                                                                    
                                                                                                    
                                                                                                    
                                                                                                    
                           
<?xpacket end="w"?></metadata>
<style type="text/css">
	.st0{fill:none;}
	.st1{fill:#E74536;}
	.st2{fill:#FFB511;}
</style>
<rect class="st0" width="1275" height="850"/>
<path class="st1" d="M541.2,507.6c-12.6,6.4-26.9,10-42,10c-51.2,0-92.7-41.5-92.7-92.7c0-51.1,40.6-92.1,91.7-92.7
	c15.5-0.2,30.1,3.5,43,10.1c5.3,2.7,11.5-0.1,13.1-5.4v-78.3c0-20.4-16.5-37-37-37H184.8c-20.4,0-37,16.5-37,37v332.6
	c0,20.4,16.5,37,37,37h332.6c20.4,0,37-16.5,37-37V513C552.7,507.7,546.5,504.9,541.2,507.6z"/>
<path class="st2" d="M1108.7,221.7H776.1c-20.4,0-37,16.5-37,37v78c-1.5,5.5-7.8,8.5-13.3,5.7c-12.9-6.6-27.5-10.2-43-10.1
	c-51.1,0.5-91.7,41.5-91.7,92.7c0,51.2,41.5,92.7,92.7,92.7c15.1,0,29.4-3.6,42-10c5.5-2.8,11.8,0.2,13.3,5.7v78
	c0,20.4,16.5,37,37,37h332.6c20.4,0,37-16.5,37-37V258.7C1145.7,238.3,1129.1,221.7,1108.7,221.7z"/>
</svg>
