<?xml version="1.0" encoding="utf-8"?>
<!-- Generator: Adobe Illustrator 28.2.0, SVG Export Plug-In . SVG Version: 6.00 Build 0)  -->
<svg version="1.1" id="ICONS" xmlns="http://www.w3.org/2000/svg" xmlns:xlink="http://www.w3.org/1999/xlink" x="0px" y="0px"
	 viewBox="0 0 120 120" style="enable-background:new 0 0 120 120;" xml:space="preserve">
<style type="text/css">
	.st0{fill:#0F1941;}
</style>
<path class="st0" d="M83.4,48.8H36.6c-3.2,0-5.9,2.6-5.9,5.9v28.5c0,3.2,2.6,5.9,5.9,5.9h46.7c3.2,0,5.9-2.6,5.9-5.9V54.6
	C89.3,51.4,86.6,48.8,83.4,48.8z M86.3,83.1c0,1.6-1.3,2.9-2.9,2.9H36.6c-1.6,0-2.9-1.3-2.9-2.9V54.6c0-1.6,1.3-2.9,2.9-2.9h46.7
	c1.6,0,2.9,1.3,2.9,2.9V83.1z"/>
<path class="st0" d="M67.6,68.6l8.8-7.6c0.6-0.5,0.7-1.5,0.2-2.1c-0.5-0.6-1.5-0.7-2.1-0.2L60,71.2L45.5,58.7
	c-0.6-0.5-1.6-0.5-2.1,0.2c-0.5,0.6-0.5,1.6,0.2,2.1l8.8,7.6l-8.8,7.9c-0.6,0.6-0.7,1.5-0.1,2.1c0.3,0.3,0.7,0.5,1.1,0.5
	c0.4,0,0.7-0.1,1-0.4l9.1-8.2l4.4,3.7c0,0,0,0,0,0c0,0,0.1,0,0.1,0.1c0.1,0,0.1,0.1,0.2,0.1c0,0,0.1,0,0.1,0c0.1,0,0.1,0,0.2,0.1
	c0,0,0.1,0,0.1,0c0.1,0,0.2,0,0.3,0c0,0,0,0,0,0c0,0,0,0,0,0c0.1,0,0.2,0,0.3,0c0,0,0.1,0,0.1,0c0.1,0,0.1,0,0.2-0.1
	c0,0,0.1,0,0.1,0c0.1,0,0.1-0.1,0.2-0.1c0,0,0.1,0,0.1-0.1c0,0,0,0,0,0l4.4-3.7l9.1,8.2c0.3,0.3,0.6,0.4,1,0.4
	c0.4,0,0.8-0.2,1.1-0.5c0.6-0.6,0.5-1.6-0.1-2.1L67.6,68.6z"/>
<path class="st0" d="M68.4,36.7c-0.6-0.6-1.5-0.6-2.1,0l-4.8,4.8V30.5c0-0.8-0.7-1.5-1.5-1.5c-0.8,0-1.5,0.7-1.5,1.5v11.1l-4.8-4.8
	c-0.6-0.6-1.5-0.6-2.1,0c-0.6,0.6-0.6,1.5,0,2.1l7.3,7.3c0.1,0.1,0.1,0.1,0.2,0.2c0,0,0.1,0,0.1,0.1c0,0,0.1,0.1,0.1,0.1
	c0,0,0.1,0,0.1,0c0,0,0.1,0,0.1,0c0.1,0,0.2,0,0.3,0s0.2,0,0.3,0c0,0,0.1,0,0.1,0c0,0,0.1,0,0.1,0c0.1,0,0.1,0,0.1-0.1
	c0,0,0.1,0,0.1-0.1c0.1-0.1,0.2-0.1,0.2-0.2l7.3-7.3C68.9,38.2,68.9,37.3,68.4,36.7z"/>
</svg>
