<?xml version="1.0" encoding="UTF-8"?>
<svg width="403px" height="556px" viewBox="0 0 403 556" version="1.1" xmlns="http://www.w3.org/2000/svg" xmlns:xlink="http://www.w3.org/1999/xlink">
    <!-- Generator: Sketch 57.1 (83088) - https://sketch.com -->
    <title>envelope--background-yellow</title>
    <desc>Created with Sketch.</desc>
    <g id="Page-1" stroke="none" stroke-width="1" fill="none" fill-rule="evenodd">
        <g id="envelope--background-yellow" fill-rule="nonzero">
            <path d="M368,555.2 L35,555.2 C16.1,555.2 0.7,539.8 0.7,520.9 L0.7,310.9 C0.7,292 16.1,276.6 35,276.6 L368,276.6 C386.9,276.6 402.3,292 402.3,310.9 L402.3,520.9 C402.3,539.7 386.9,555.2 368,555.2 Z" id="Path" fill="#2175D9"></path>
            <path d="M363.8,501.8 L264.2,417.6 L364,334.4 C370.9,328.6 371.9,318.3 366.1,311.4 C360.3,304.5 350,303.5 343.1,309.3 L206.6,423.2 L60.6,309 C53.5,303.4 43.2,304.7 37.7,311.8 C32.1,318.9 33.4,329.2 40.5,334.7 L147.6,418.5 L39.2,502.9 C32.3,508.7 31.5,519 37.3,525.9 C40.5,529.7 45.1,531.7 49.8,531.7 C53.5,531.7 57.3,530.4 60.3,527.8 L173.8,439 L196.8,457 C199.8,459.3 203.3,460.5 206.9,460.5 C210.6,460.5 214.3,459.2 217.4,456.7 L238.9,438.8 L342.8,526.7 C345.9,529.3 349.6,530.6 353.3,530.6 C357.9,530.6 362.5,528.6 365.8,524.8 C371.6,517.9 370.7,507.6 363.8,501.8 Z" id="Path" fill="#F7F5F0"></path>
            <path d="M296.1,119.8 C285.2,109.5 268,110 257.6,120.9 L231.6,148.4 L231.6,28 C231.6,13 219.4,0.8 204.4,0.8 C189.4,0.8 177.2,13 177.2,28 L177.2,148.1 L150.7,121 C140.2,110.3 123,110.1 112.2,120.6 C101.5,131.1 101.3,148.4 111.8,159.1 L186,235 C191.1,240.2 198.1,243.4 205.4,243.4 C205.5,243.4 205.6,243.4 205.6,243.4 C213,242.3 220,240 225.1,234.6 L297.1,158.1 C307.5,147.3 307,130.1 296.1,119.8 Z" id="Path" fill="#0F1941"></path>
        </g>
    </g>
</svg>