<?xml version="1.0" encoding="utf-8"?>
<!-- Generator: Adobe Illustrator 27.9.0, SVG Export Plug-In . SVG Version: 6.00 Build 0)  -->
<svg version="1.1" xmlns="http://www.w3.org/2000/svg" xmlns:xlink="http://www.w3.org/1999/xlink" x="0px" y="0px" width="120px"
	 height="120px" viewBox="0 0 120 120" style="enable-background:new 0 0 120 120;" xml:space="preserve">
<style type="text/css">
	.st0{fill:#2175D9;}
	.st1{fill-rule:evenodd;clip-rule:evenodd;fill:#2175D9;}
	.st2{filter:url(#Adobe_OpacityMaskFilter);}
	.st3{fill-rule:evenodd;clip-rule:evenodd;fill:#FFFFFF;}
	.st4{mask:url(#mask-2_00000026164079899484681900000015477938084864844451_);fill-rule:evenodd;clip-rule:evenodd;fill:#2175D9;}
	.st5{fill:none;}
</style>
<g id="ICONS">
	<g>
		<path class="st0" d="M65.6,33.5c-0.6-0.4-1.3-0.4-1.9-0.1L40.9,43.9h-13c-4.4,0-8,3.6-8,8v16.4c0,4.4,3.6,8,8,8h13l22.7,10.5
			c0.3,0.1,0.6,0.2,0.8,0.2c0.4,0,0.8-0.1,1.1-0.3c0.6-0.4,0.9-1,0.9-1.7V35.2C66.5,34.5,66.2,33.9,65.6,33.5z M23.9,68.3V51.9
			c0-2.2,1.8-4,4-4h11.4v24.4H27.9C25.7,72.3,23.9,70.5,23.9,68.3z M62.5,81.9L43.4,73V47.2l19.1-8.8V81.9z"/>
		<path class="st0" d="M90.6,37.7c-0.8-0.8-2-0.8-2.8,0s-0.8,2,0,2.8c5.2,5.2,8.1,12.1,8.1,19.5c0,7.4-2.9,14.3-8.1,19.5
			c-0.8,0.8-0.8,2,0,2.8c0.4,0.4,0.9,0.6,1.4,0.6s1-0.2,1.4-0.6c6-6,9.3-13.9,9.3-22.3C99.8,51.7,96.5,43.7,90.6,37.7z"/>
		<path class="st0" d="M82.2,46.1c-0.8-0.8-2-0.8-2.8,0c-0.8,0.8-0.8,2,0,2.8c3,3,4.6,6.9,4.6,11.1c0,4.2-1.6,8.2-4.6,11.1
			c-0.8,0.8-0.8,2,0,2.8c0.4,0.4,0.9,0.6,1.4,0.6s1-0.2,1.4-0.6c3.7-3.7,5.8-8.7,5.8-14C88,54.8,85.9,49.9,82.2,46.1z"/>
		<path class="st0" d="M70.8,53.7c-0.8,0.8-0.8,2,0,2.8c1,1,1.5,2.2,1.5,3.6c0,1.4-0.5,2.6-1.5,3.6c-0.8,0.8-0.8,2,0,2.8
			c0.4,0.4,0.9,0.6,1.4,0.6s1-0.2,1.4-0.6c1.7-1.7,2.7-4,2.7-6.4c0-2.4-0.9-4.7-2.7-6.4C72.8,52.9,71.6,52.9,70.8,53.7z"/>
	</g>
</g>
<g id="voor_SVG">
	<rect class="st5" width="120" height="120"/>
</g>
</svg>
