<svg xmlns="http://www.w3.org/2000/svg" width="87" height="80" viewBox="0 0 87 80">
  <g fill="none" fill-rule="evenodd">
    <path fill="#0F1941" d="M87.5544431,20.7013662 C87.5663929,20.6895309 87.5663929,20.6658603 87.5783427,20.654025 C87.6022423,20.5948484 87.6261419,20.5356719 87.6500415,20.4764954 C87.6739411,20.4291542 87.6858909,20.3699777 87.7097905,20.3226365 C87.7217403,20.2989659 87.7217403,20.2752953 87.7336901,20.2516247 C88.3550798,18.2987999 87.8890376,16.0619278 86.3355633,14.5115032 L74.4694104,2.67620127 C72.2347975,0.451164501 68.5781582,0.439329199 66.3315955,2.65253067 L66.3315955,2.65253067 C64.0850328,4.86573213 64.073083,8.48733454 66.3076959,10.7123713 L68.4825597,12.8782316 L56.7598044,12.8900669 C53.5931069,12.8900669 51,15.4583274 51,18.5946824 L51,18.5946824 C51,21.7310374 53.5931069,24.299298 56.7598044,24.299298 L68.2435637,24.299298 L66.2479468,26.2639581 C64.0013841,28.4771596 63.9894343,32.098762 66.2240472,34.3237987 L66.2240472,34.3237987 C68.4586601,36.5488355 72.1152994,36.5606708 74.3618621,34.3474693 L86.0129187,22.890897 C86.6701578,22.2872966 87.2078989,21.5416726 87.5544431,20.7013662 Z" transform="rotate(-90 69.5 18.5)"/>
    <path fill="#0F1941" d="M35.5544431,63.7013662 C35.5663929,63.6895309 35.5663929,63.6658603 35.5783427,63.654025 C35.6022423,63.5948484 35.6261419,63.5356719 35.6500415,63.4764954 C35.6739411,63.4291542 35.6858909,63.3699777 35.7097905,63.3226365 C35.7217403,63.2989659 35.7217403,63.2752953 35.7336901,63.2516247 C36.3550798,61.2987999 35.8890376,59.0619278 34.3355633,57.5115032 L22.4694104,45.6762013 C20.2347975,43.4511645 16.5781582,43.4393292 14.3315955,45.6525307 L14.3315955,45.6525307 C12.0850328,47.8657321 12.073083,51.4873345 14.3076959,53.7123713 L16.4825597,55.8782316 L4.75980437,55.8900669 C1.59310695,55.8900669 -1,58.4583274 -1,61.5946824 L-1,61.5946824 C-1,64.7310374 1.59310695,67.299298 4.75980437,67.299298 L16.2435637,67.299298 L14.2479468,69.2639581 C12.0013841,71.4771596 11.9894343,75.098762 14.2240472,77.3237987 L14.2240472,77.3237987 C16.4586601,79.5488355 20.1152994,79.5606708 22.3618621,77.3474693 L34.0129187,65.890897 C34.6701578,65.2872966 35.2078989,64.5416726 35.5544431,63.7013662 Z" transform="rotate(-90 17.5 61.5)"/>
    <circle cx="17" cy="16" r="16" fill="#F7F5F0"/>
    <circle cx="69" cy="64" r="16" fill="#F7F5F0"/>
  </g>
</svg>
