<?xml version="1.0" encoding="utf-8"?>
<!-- Generator: Adobe Illustrator 21.0.0, SVG Export Plug-In . SVG Version: 6.00 Build 0)  -->
<!DOCTYPE svg PUBLIC "-//W3C//DTD SVG 1.1//EN" "http://www.w3.org/Graphics/SVG/1.1/DTD/svg11.dtd">
<svg version="1.1" id="Laag_1" xmlns="http://www.w3.org/2000/svg" xmlns:xlink="http://www.w3.org/1999/xlink" x="0px" y="0px"
	 width="1275px" height="850px" viewBox="0 0 1275 850" style="enable-background:new 0 0 1275 850;" xml:space="preserve">
<style type="text/css">
	.st0{fill:none;}
	.st1{fill:#0F1941;}
	.st2{fill:#F7F5F0;}
	.st3{fill:#FFB511;}
</style>
<rect class="st0" width="1275" height="850"/>
<path class="st1" d="M776.1,591.3c10.2,10.2,10.2,26.8,0,37l0,0c-10.2,10.2-26.8,10.2-37,0l-37-37c-10.2-10.2-26.8-10.2-37,0l-37,37
	c-10.2,10.2-26.8,10.2-37,0l-37-37c-10.2-10.2-26.8-10.2-37,0l-37,37c-10.2,10.2-26.8,10.2-37,0l0,0c-10.2-10.2-10.2-26.8,0-37
	L184.8,850h850L776.1,591.3z"/>
<path class="st2" d="M776.1,628.3L776.1,628.3c-10.2,10.2-26.8,10.2-37,0l-37-37c-10.2-10.2-26.8-10.2-37,0l-37,37
	c-10.2,10.2-26.8,10.2-37,0l-37-37c-10.2-10.2-26.8-10.2-37,0l-37,37c-10.2,10.2-26.8,10.2-37,0l0,0c-10.2-10.2-10.2-26.8,0-37
	l153.2-153.2c7.2-7.2,18.9-7.2,26.1,0l153.2,153.2C786.3,601.5,786.3,618.1,776.1,628.3z"/>
<path class="st3" d="M702.2,332.6l55.4-55.4H619c0-5.1-4.1-9.2-9.2-9.2s-9.2,4.1-9.2,9.2V462c0,5.1,4.1,9.2,9.2,9.2s9.2-4.1,9.2-9.2
	V388h138.6L702.2,332.6z"/>
<g>
</g>
<g>
</g>
<g>
</g>
<g>
</g>
<g>
</g>
<g>
</g>
<g>
</g>
<g>
</g>
<g>
</g>
<g>
</g>
<g>
</g>
<g>
</g>
<g>
</g>
<g>
</g>
<g>
</g>
</svg>
