<?xml version="1.0" encoding="UTF-8"?>
<svg width="1275px" height="850px" viewBox="0 0 1275 850" version="1.1" xmlns="http://www.w3.org/2000/svg" xmlns:xlink="http://www.w3.org/1999/xlink">
    <title>Contact_illustration_UseBackgroundWhite_RGB</title>
    <g id="Page-1" stroke="none" stroke-width="1" fill="none" fill-rule="evenodd">
        <g id="Contact_illustration_UseBackgroundWhite_RGB">
            <rect id="Rectangle" x="0" y="0" width="1275" height="850"></rect>
            <path d="M990.2,73.9 L524.1,73.9 C499.8,73.9 480,93.8 480,118 L480,437.6 C480,461.9 499.9,481.7 524.1,481.7 L760.4,481.7 L898.5,552.3 C909.8,558.1 923.4,549.9 923.4,537.2 L923.4,481.6 L995.1,481.6 C1016.7,481.6 1034.3,464.1 1034.3,442.4 L1034.3,118.1 C1034.3,93.8 1014.5,73.9 990.2,73.9 Z" id="Path" fill="#0F1941" fill-rule="nonzero"></path>
            <path d="M536.6,389.1 L386.5,389.1 C295.3,389.1 221.3,463.1 221.3,554.3 C221.3,633.3 276.7,699.3 350.7,715.6 L350.7,759.1 C350.7,771.8 364.2,780 375.6,774.2 L482.4,719.6 L536.7,719.6 C627.9,719.6 701.9,645.6 701.9,554.4 C701.9,463.2 627.9,389.1 536.6,389.1 Z" id="Path" fill="#6BA5B4" fill-rule="nonzero"></path>
            <path d="M868,169.4 L646.3,169.4 C631,169.4 618.6,181.8 618.6,197.1 L618.6,332.6 C618.6,347.9 631,360.3 646.3,360.3 L868,360.3 C883.3,360.3 895.700596,347.9 895.700596,332.6 L895.700596,197.1 C895.8,181.8 883.3,169.4 868,169.4 Z M859.6,187.9 L757.2,267.6 L654.8,187.9 L859.6,187.9 L859.6,187.9 Z M868,341.8 L646.3,341.8 C641.2,341.8 637.1,337.7 637.1,332.6 L637.1,197.5 L751.5,286.5 C753.2,287.8 755.2,288.4 757.2,288.4 C759.2,288.4 761.2,287.8 762.9,286.5 L877.3,197.5 L877.3,332.6 C877.3,337.7 873.1,341.8 868,341.8 Z" id="Shape" fill="#FFFFFF" fill-rule="nonzero"></path>
            <path d="M517,668.3 L406.1,668.3 C390.8,668.3 378.4,655.9 378.4,640.6 L378.4,462 C378.4,446.7 390.8,434.3 406.1,434.3 L517,434.3 C532.3,434.3 544.7,446.7 544.7,462 L544.7,640.6 C544.7,655.9 532.2,668.3 517,668.3 Z M406.1,452.7 C401,452.7 396.9,456.8 396.9,461.9 L396.9,640.5 C396.9,645.6 401,649.7 406.1,649.7 L517,649.7 C522.1,649.7 526.2,645.6 526.2,640.5 L526.2,462 C526.2,456.9 522.1,452.8 517,452.8 L406.1,452.8 L406.1,452.7 Z" id="Shape" fill="#0F1941" fill-rule="nonzero"></path>
            <circle id="Oval" fill="#0F1941" fill-rule="nonzero" cx="461.5" cy="609.8" r="18.5"></circle>
        </g>
    </g>
</svg>