<?xml version="1.0" encoding="utf-8"?>
<!-- Generator: Adobe Illustrator 22.0.1, SVG Export Plug-In . SVG Version: 6.00 Build 0)  -->
<!DOCTYPE svg PUBLIC "-//W3C//DTD SVG 1.1//EN" "http://www.w3.org/Graphics/SVG/1.1/DTD/svg11.dtd">
<svg version="1.1" id="Laag_1" xmlns="http://www.w3.org/2000/svg" xmlns:xlink="http://www.w3.org/1999/xlink" x="0px" y="0px"
	 width="1275px" height="850px" viewBox="0 0 1275 850" style="enable-background:new 0 0 1275 850;" xml:space="preserve">
<style type="text/css">
	.st0{fill:#6BA5B4;}
	.st1{fill:#FFB511;}
	.st2{fill:#0F1941;}
	.st3{fill:none;}
</style>
<path class="st0" d="M831.5,314.1H480.4c-81.6,0-147.8,66.2-147.8,147.8s66.2,147.8,147.8,147.8c46.7,0,88.3-21.6,115.4-55.4h120.3
	c27.1,33.8,68.7,55.4,115.4,55.4c81.6,0,147.8-66.2,147.8-147.8S913.2,314.1,831.5,314.1z"/>
<circle class="st1" cx="794.6" cy="425" r="37"/>
<circle class="st1" cx="868.5" cy="498.9" r="37"/>
<path class="st2" d="M535.9,443.5h-37v-37c0-10.2-8.3-18.5-18.5-18.5l0,0c-10.2,0-18.5,8.3-18.5,18.5v37h-37
	c-10.2,0-18.5,8.3-18.5,18.5v0c0,10.2,8.3,18.5,18.5,18.5h37v37c0,10.2,8.3,18.5,18.5,18.5l0,0c10.2,0,18.5-8.3,18.5-18.5v-37h37
	c10.2,0,18.5-8.3,18.5-18.5v0C554.3,451.8,546.1,443.5,535.9,443.5z"/>
<g>
	<path class="st2" d="M665.2,314.1h-18.5v-73.9c0-45.8,37.3-83.2,83.2-83.2h37c35.7,0,64.7-29,64.7-64.7V0H850v92.4
		c0,45.8-37.3,83.2-83.2,83.2h-37c-35.7,0-64.7,29-64.7,64.7V314.1z"/>
</g>
<rect class="st3" width="1275" height="850"/>
<g>
</g>
<g>
</g>
<g>
</g>
<g>
</g>
<g>
</g>
<g>
</g>
<g>
</g>
<g>
</g>
<g>
</g>
<g>
</g>
<g>
</g>
<g>
</g>
<g>
</g>
<g>
</g>
<g>
</g>
</svg>
